<?xml version="1.0" encoding="utf-8"?>
<!-- Generator: Adobe Illustrator 26.0.1, SVG Export Plug-In . SVG Version: 6.00 Build 0)  -->
<svg version="1.1" id="Layer_1" xmlns="http://www.w3.org/2000/svg" xmlns:xlink="http://www.w3.org/1999/xlink" x="0px" y="0px"
	 viewBox="0 0 664.26 622.45" style="enable-background:new 0 0 664.26 622.45;" xml:space="preserve">
<style type="text/css">
	.st0{fill-rule:evenodd;clip-rule:evenodd;fill:#FCE42E;stroke:#5B4F35;stroke-width:2;stroke-miterlimit:10;}
</style>
<g>
	<g>
		<path class="st0" d="M324.1,339.47c-13.51-0.1-26.7-12.9-26.78-26.02c-0.08-11.92,15.34-26.68,27.64-26.44
			c14.74,0.28,26.96,12.47,26.81,26.75C351.63,328.12,339.29,339.59,324.1,339.47L324.1,339.47z M324.12,328.2
			c8.92,0.05,16.12-4.45,18.55-12.44c2.73-9.02-2.64-17.53-17.87-17.53c-6.63,0-18.41,6.53-18.58,12.87
			c0.03,3.93,2.15,11.95,5.64,14.93C314.57,328.35,321.01,328.05,324.12,328.2L324.12,328.2z M583.82,329.28
			c-1.63-14.4-1.04-30.07-5.43-44.33C559.39,223.46,533.44,166,483.5,120.19c-29.01-26.61-59.75-46.86-99.2-54.03
			c-26.94-4.89-54.21-10.33-81.18-2.79c-18.43,5.16-35.82,13.78-53.72,20.74c-44.7,17.37-85.83,39.57-118.5,75.02
			c-20.74,22.52-40.45,45.18-49.55,74.69c-10.74,34.9-19.29,70.46-8.97,106.41c10.42,36.21,25.93,70.9,47.46,102.42
			c21.31,31.18,49.5,56.62,79,80.48c9.51,7.69,21.13,13.29,32.45,18.55c49.61,23.02,101.15,31.53,155.61,18.72
			c27.92-6.58,55.2-14.12,74.48-36.39c24.83-28.74,51.81-55.32,80.86-80.08c17.73-15.1,28.89-34.42,33.02-56.92
			C578.71,368.21,580.93,349.19,583.82,329.28L583.82,329.28z M590.94,325.22c-2.28,19.13-3.84,38.19-6.92,57.02
			c-5.04,30.65-21.15,55.52-45.49,75.53c-22.77,18.73-44.08,38.84-62.41,61.7c-24.71,30.83-59.57,42.54-97.37,49.56
			c-45.73,8.5-89.36,3.27-132.66-13.25c-32.04-12.23-59.2-29.9-82.93-53.6c-22.15-22.12-45.73-43.3-59.79-71.34
			C89.98,404.12,76.95,377,67.13,348.96c-13.48-38.51-4.77-76.99,6.4-114.82c10.01-33.93,32.38-59.92,56.94-84.99
			c28.5-29.08,61.98-50.28,100.29-64.98c9.54-3.66,18.94-7.82,27.93-12.55c37.08-19.49,76.1-21.6,116.89-14.45
			c45.22,7.94,81.91,28.12,115.05,59.47c50.24,47.5,76.95,105.92,95.73,169.01C590.09,298.21,589.51,311.96,590.94,325.22
			L590.94,325.22z M350.54,95.29c-23.48-0.36-47.08-0.54-69.58,6.99c-29.57,9.91-57.5,29.86-86.75,40.6
			c-15.67,5.74-28.09,15.96-37.85,29.09c-22.52,30.28-37.59,63.81-46.32,100.03c-8.2,34.07-5.47,67.24,8.61,99.6
			c7.17,16.47,14.4,32.96,20.29,49.86c10.39,29.88,29.25,53.05,56.32,70.33c26.38,16.85,53.15,31.35,86.75,30.08
			c31.79-1.19,63.7-0.26,95.55,0.42c25.67,0.54,47.64-6.95,65.62-24.83c24.26-24.13,48.63-48.18,72.83-72.36
			c13.81-13.8,22.57-30.28,25.82-49.18c1.64-9.57,2.34-19.3,3.14-28.99c3.87-47.53-5.14-92.42-28.6-134.71
			c-16-28.84-40.1-50.8-63.61-73.45c-24.29-23.39-54.98-43.9-89.12-43.49C359.27,95.34,354.91,95.29,350.54,95.29L350.54,95.29z
			 M344.78,86.77c13.33,0.7,26.66,1.05,39.95,2.21c16.99,1.48,34.76,15.24,48.56,24.97c35.39,24.95,66.2,54.35,88.38,91.2
			c27.79,46.15,35.16,96.22,31.5,148.88c-2.54,36.48-17.06,66.03-44.96,90.65c-18.07,15.94-34.97,33.24-51.28,50.89
			c-24.46,26.47-54.48,37.16-90.82,34.66c-21.5-1.47-43.42-3.03-64.72-0.8c-45.43,4.77-82.99-10.85-118.07-36.23
			c-23.05-16.69-40.19-37.22-50.03-63.55c-7.14-19.1-15.04-37.95-23.13-56.71c-15.7-36.42-16.38-73.57-6.25-111.23
			c7.82-29.1,20.54-56.23,36.59-81.93c14.41-23.08,34.27-39.72,60.88-48.79c21.35-7.27,41.15-24.26,62.36-31.92
			C289.91,89.62,316.94,86.06,344.78,86.77L344.78,86.77z M516.46,312.71c-1.52,14.97-2.6,32.7-5.28,50.2
			c-4.71,31.1-19.81,57.18-44.62,77.54c-37.31,30.59-78.63,53.62-128.91,55.72c-16.06,0.66-33.13-0.94-48.31-5.71
			c-40.08-12.59-77.54-31.57-105.39-62.48c-88.05-97.68-44.9-204.21,27.47-258.15c39.85-29.7,85.4-44.63,136.31-38.15
			c16.04,2.04,32.18,6.52,47.17,12.45c31.02,12.27,59.17,29.54,83.68,51.83c20.61,18.74,30.74,42.54,33.99,69.18
			C514.39,280,515.04,294.98,516.46,312.71L516.46,312.71z M507.21,313.66c-1.01-15.87-1.44-28.79-2.73-41.61
			c-2.64-26.38-11.06-50.51-31.57-69.33c-28.24-25.89-61.17-44.54-97.96-56.49c-11.72-3.79-24.33-6.15-36.67-6.85
			c-51.94-3.01-97.38,13.93-134.41,48.04c-74.63,68.74-83.56,167.32-3.34,244.1c24.11,23.06,54.51,38.52,86.64,49.21
			c14.25,4.74,30.13,7.16,45.23,6.99c46.99-0.49,85.96-21.21,121.86-48.47c27.58-20.96,44.34-47.98,48.87-81.6
			C505.21,342.1,506.05,326.41,507.21,313.66L507.21,313.66z M328.56,193.23c-24.31-1.2-60.48,8.72-81.91,26.27
			c-24.3,19.88-46.01,53.2-42.71,90.93c2.09,23.83,6.84,48.61,15.91,64.2c18.57,31.94,58.64,52.32,106.25,56.31
			c57.43,4.8,126.28-49.48,120.53-112.7c-4.16-45.74-17.27-84.58-60.31-104.05C368.67,206.19,350.13,194.41,328.56,193.23
			L328.56,193.23z M194.96,306.79c-2.31-30.73,15.6-60.28,37.78-82.47c32.82-32.85,80.82-49.61,133.79-30.29
			c41.21,15.04,67.86,40.14,82.19,79.92c18.98,52.66,3.2,105.35-45.69,140.32c-37.35,26.72-78.14,35.33-122.33,15.55
			c-0.26-0.11-0.52-0.23-0.78-0.31C215.53,411.22,194.95,354.68,194.96,306.79L194.96,306.79z M319.18,244.57
			c-9.13,2.55-19.33,3.87-28.05,8.07c-28.14,13.58-39.97,39.44-32.36,71.39c2.74,11.58,7.72,23.05,13.73,33.45
			c5.54,9.54,46.08,24,57.54,22.81c21.6-2.25,38.09-12.96,51.15-28.87c14.02-17.06,17.3-36.01,8.45-56.46
			c-16.45-38-14.07-31.48-47.71-44.56C335.09,247.73,327.57,246.66,319.18,244.57L319.18,244.57z M250.23,307.87
			c-1.26-47.15,47.32-80.64,91.09-65.13c7.99,2.83,16.16,5.42,23.73,9.11c5.72,2.79,12.38,6.06,15.58,10.96
			c13.71,21.03,25.5,42.69,18.76,69.3c-7.46,29.52-45.92,57.66-77.28,55.3c-3.94-0.29-7.96-1.35-11.62-2.79
			c-10.19-4.03-20.23-8.41-30.3-12.74c-9.4-4.04-15.74-10.79-19.46-20.09C254.74,336.88,248.39,322.07,250.23,307.87L250.23,307.87z
			 M327.67,22.04c-6.35,0-12.53,0.55-18.4,1.66c-76.19,14.32-133.17,49.34-182.14,90.25c-20.47,17.1-48.31,36.03-56.99,64.02
			c-1.36,4.37-2.65,8.75-3.95,13.15c-2.16,7.31-4.4,14.88-6.9,22.32C45.34,255,42.91,310.23,40.5,354.25l-0.84,15.57
			c-2.69,50.45,66.95,115.15,97.08,146.45c13.79,14.35,34.13,41.81,47.12,48.03c4.37,2.09,8.22-0.05,13.36,1.62
			c12.58,4.09,25.2,8.06,37.83,12.02l10.9,3.43c32.05,10.11,61.36,15.02,89.59,15.02c9.18,0,18.41-0.53,27.4-1.6
			c82.31-9.67,150.93-38.69,190.96-94.6l4.11-13.78c25.51-33.02,36.87-62.65,45.7-91.67c7.84-25.77,7.84-52.21,7.85-80.19l0.02-8.3
			c0.01-4.28,0.03-8.57-0.03-12.86c-0.37-20.53-1.29-42.33-7.94-63.31c-12.3-38.82-37.01-60.08-63.42-92.58
			c-20.28-24.97-45.74-55.9-75.69-69.94c-28.31-13.27-59.71-26.86-100.62-36.4C352.53,28.53,337.55,22.04,327.67,22.04L327.67,22.04
			z M331.81,613.01C331.8,613.01,331.8,613.01,331.81,613.01c-30.14,0-61.22-5.19-94.99-15.83l-10.74-3.39
			c-14.32-4.49-28.65-9-42.91-13.68c-26.25-8.62-38.35-40.43-57.6-60.44C87.01,479.6,50.7,459.14,34.84,418.13
			c-6.87-17.78-9.76-34.91-8.83-52.37l0.84-15.4c1.01-18.42,2.05-37.47,2.74-56.16c0.96-26.25,6.4-53.28,17.07-85.08
			c2.34-7,4.51-14.29,6.59-21.33c1.3-4.4,2.6-8.82,3.97-13.21c10.13-32.71,33.51-55.51,55.06-73.49
			c51.2-42.75,114.45-70.76,193.35-85.6c17.8-3.34,36.92-2.56,58.31,2.45c41.88,9.77,75.04,20.72,104.37,34.47
			c32.48,15.23,57.06,54.29,79.08,81.39c27.32,33.66,55.99,49.72,69.19,91.38c7.36,23.23,8.38,47.33,8.75,68.09
			c0.07,4.38,0.06,8.76,0.03,13.13l-0.02,8.1c0,27.84-0.01,56.63-8.6,84.87c-9.44,31.03-26.27,61.59-52.98,96.16
			c-2.76,3.58-5.43,7.24-8.07,10.91c-43.15,60.25-106.7,94.54-194.29,104.83C351.69,612.43,341.73,613.01,331.81,613.01
			L331.81,613.01z"/>
	</g>
</g>
</svg>
