<?xml version="1.0" encoding="utf-8"?>
<!-- Generator: Adobe Illustrator 26.0.1, SVG Export Plug-In . SVG Version: 6.00 Build 0)  -->
<svg version="1.1" id="Layer_1" xmlns="http://www.w3.org/2000/svg" xmlns:xlink="http://www.w3.org/1999/xlink" x="0px" y="0px"
	 viewBox="0 0 5045.48 2046.34" style="enable-background:new 0 0 5045.48 2046.34;" xml:space="preserve">
<style type="text/css">
	.st0{fill-rule:evenodd;clip-rule:evenodd;fill:#FFE434;}
	.st1{fill-rule:evenodd;clip-rule:evenodd;fill:#FFFFFF;}
	.st2{fill:#FFFFFF;}
	.st3{fill:#FFE434;}
</style>
<g>
	<g>
		<path class="st0" d="M1703.43,1128.09c-68.87-187.19-175.66-333.29-329.77-407.16l-40.11-4.64
			c-103.71-54.43-192.17-82.59-276.71-92.84c-75.07-9.12-132.08-41.3-209.45-27.67l-22.48,27.08
			c-39.26,6.8-185.17,61.23-223.31,81.16c-101.36,52.94-147.09,142.8-224.1,231.64c-59.15,68.23-132.24,153.73-156.46,243.39
			c-16.77,62.07-33.19,128.83-43.31,206.42c62.1,85.95,145.97,166.21,194.03,216.16c38.71,40.28,95.82,117.41,132.31,134.84
			c12.28,5.87,23.07-0.13,37.5,4.55c35.32,11.48,70.77,22.62,106.21,33.75l30.61,9.62c89.99,28.39,172.26,42.17,251.55,42.17
			c25.79,0,51.68-1.5,76.92-4.47c231.11-27.16,423.74-108.64,536.15-265.58l11.54-38.68c71.61-92.69,103.51-175.89,128.29-257.36
			C1696,1217.19,1701.3,1173.25,1703.43,1128.09L1703.43,1128.09z"/>
		<path class="st1" d="M897.79,1105.27c-37.93-0.27-74.95-36.21-75.18-73.06c-0.23-33.46,43.06-74.9,77.6-74.23
			c41.39,0.79,75.7,35,75.27,75.1C975.07,1073.36,940.4,1105.56,897.79,1105.27L897.79,1105.27z M897.83,1073.6
			c25.06,0.13,45.27-12.49,52.08-34.95c7.66-25.34-7.4-49.19-50.15-49.21c-18.63,0-51.68,18.35-52.17,36.15
			c0.08,11.04,6.05,33.54,15.82,41.93C871.01,1074.03,889.1,1073.19,897.83,1073.6L897.83,1073.6z M1626.96,1076.65
			c-4.58-40.42-2.91-84.43-15.27-124.44c-53.32-172.64-126.17-333.97-266.38-462.58c-81.43-74.7-167.75-131.57-278.51-151.69
			c-75.63-13.73-152.2-28.99-227.94-7.83c-51.76,14.5-100.59,38.68-150.84,58.23c-125.52,48.77-241,111.12-332.69,210.63
			c-58.24,63.24-113.59,126.84-139.12,209.7c-30.17,97.97-54.18,197.81-25.17,298.74c29.23,101.67,72.81,199.07,133.26,287.57
			c59.84,87.55,138.99,158.96,221.79,225.94c26.71,21.59,59.32,37.32,91.09,52.06c139.3,64.63,284,88.54,436.9,52.56
			c78.39-18.46,154.98-39.63,209.09-102.18c69.7-80.67,145.45-155.3,227.05-224.84c49.77-42.42,81.12-96.64,92.7-159.81
			C1612.62,1185.91,1618.84,1132.51,1626.96,1076.65L1626.96,1076.65z M1646.95,1065.23c-6.39,53.71-10.77,107.23-19.44,160.09
			c-14.14,86.05-59.38,155.91-127.71,212.08c-63.93,52.57-123.76,109.05-175.23,173.22c-69.36,86.55-167.25,119.44-273.38,139.15
			c-128.39,23.89-250.86,9.19-372.45-37.2c-89.98-34.34-166.21-83.95-232.83-150.49c-62.19-62.11-128.4-121.57-167.86-200.31
			c-37.57-74.99-74.16-151.15-101.73-229.87c-37.87-108.11-13.38-216.15,17.95-322.37c28.1-95.28,90.93-168.23,159.85-238.59
			c80.01-81.65,174.01-141.18,281.59-182.43c26.79-10.27,53.17-21.96,78.44-35.23c104.11-54.71,213.66-60.67,328.17-40.57
			c126.95,22.28,229.95,78.95,322.99,166.94c141.06,133.37,216.03,297.38,268.78,474.52
			C1644.56,989.41,1642.96,1027.99,1646.95,1065.23L1646.95,1065.23z M972,419.71c-65.94-1.01-132.18-1.54-195.34,19.61
			c-83.03,27.8-161.41,83.82-243.56,113.98c-43.98,16.13-78.86,44.83-106.26,81.68C363.63,720,321.29,814.13,296.8,915.84
			c-23.02,95.66-15.36,188.79,24.15,279.65c20.12,46.24,40.44,92.54,56.98,140c29.18,83.9,82.1,148.92,158.12,197.48
			c74.06,47.3,149.22,88.01,243.55,84.46c89.27-3.35,178.85-0.74,268.26,1.18c72.06,1.53,133.78-19.51,184.24-69.72
			c68.12-67.75,136.52-135.26,204.47-203.18c38.77-38.75,63.34-85,72.47-138.08c4.62-26.87,6.57-54.19,8.81-81.37
			c10.86-133.45-14.44-259.49-80.29-378.23c-44.92-80.98-112.59-142.62-178.59-206.22c-68.19-65.68-154.36-123.25-250.22-122.1
			C996.53,419.83,984.28,419.71,972,419.71L972,419.71z M955.84,395.75c37.41,1.98,74.87,2.96,112.14,6.2
			c47.72,4.15,97.6,42.78,136.35,70.1c99.39,70.07,185.88,152.58,248.16,256.06c78.01,129.56,98.71,270.13,88.44,418
			c-7.11,102.43-47.92,185.4-126.23,254.5c-50.75,44.75-98.18,93.34-143.97,142.88c-68.67,74.31-152.97,104.33-254.98,97.3
			c-60.38-4.14-121.89-8.53-181.7-2.27c-127.55,13.37-233.01-30.47-331.51-101.73c-64.74-46.86-112.84-104.49-140.47-178.42
			c-20.04-53.63-42.22-106.56-64.94-159.23c-44.1-102.27-46-206.56-17.55-312.29c21.96-81.69,57.65-157.86,102.74-230.03
			c40.48-64.8,96.24-111.52,170.93-136.97c59.97-20.42,115.51-68.13,175.1-89.6C801.78,403.75,877.67,393.77,955.84,395.75
			L955.84,395.75z M1437.84,1030.1c-4.24,42.03-7.32,91.81-14.8,140.97c-13.23,87.33-55.64,160.54-125.27,217.69
			c-104.75,85.89-220.76,150.57-361.91,156.42c-45.06,1.86-93.03-2.65-135.65-16.04c-112.52-35.35-217.68-88.62-295.89-175.4
			c-247.22-274.23-126.08-573.35,77.11-724.77c111.89-83.37,239.77-125.32,382.72-107.11c45.03,5.74,90.33,18.31,132.42,34.97
			c87.11,34.47,166.11,82.94,234.95,145.53c57.86,52.6,86.31,119.43,95.44,194.24C1432.03,938.28,1433.88,980.32,1437.84,1030.1
			L1437.84,1030.1z M1411.88,1032.78c-2.82-44.56-4.04-80.83-7.65-116.82c-7.42-74.05-31.06-141.82-88.63-194.63
			c-79.28-72.71-171.75-125.07-275.05-158.59c-32.91-10.66-68.3-17.26-102.97-19.25c-145.81-8.45-273.4,39.09-377.38,134.88
			c-209.52,193-234.61,469.76-9.39,685.34c67.67,64.76,153.04,108.13,243.23,138.17c40.01,13.32,84.58,20.08,126.99,19.62
			c131.92-1.37,241.33-59.53,342.13-136.1c77.43-58.85,124.48-134.72,137.2-229.11C1406.25,1112.63,1408.64,1068.57,1411.88,1032.78
			L1411.88,1032.78z M910.3,694.66c-68.25-3.36-169.82,24.49-229.97,73.74c-68.22,55.84-129.19,149.39-119.89,255.31
			c5.87,66.91,19.19,136.47,44.65,180.23c52.14,89.68,164.64,146.89,298.32,158.07c161.25,13.49,354.54-138.92,338.38-316.42
			c-11.67-128.44-48.48-237.47-169.35-292.14C1022.91,731.03,970.86,697.99,910.3,694.66L910.3,694.66z M535.21,1013.47
			c-6.48-86.26,43.8-169.24,106.08-231.56c92.15-92.22,226.9-139.3,375.6-85.05c115.73,42.21,190.5,112.69,230.75,224.41
			c53.27,147.85,8.99,295.8-128.28,393.97c-104.87,75.03-219.39,99.19-343.44,43.65c-0.72-0.31-1.45-0.65-2.21-0.85
			C592.97,1306.7,535.17,1147.93,535.21,1013.47L535.21,1013.47z M883.97,838.8c-25.62,7.15-54.27,10.88-78.73,22.68
			c-79,38.13-112.23,110.72-90.86,200.44c7.71,32.53,21.67,64.71,38.56,93.92c15.53,26.8,129.39,67.39,161.54,64.05
			c60.64-6.32,106.93-36.4,143.61-81.08c39.35-47.91,48.57-101.09,23.7-158.52c-46.2-106.68-39.52-88.37-133.96-125.13
			C928.62,847.67,907.52,844.69,883.97,838.8L883.97,838.8z M690.35,1016.54c-3.54-132.38,132.84-226.39,255.73-182.85
			c22.46,7.95,45.36,15.24,66.62,25.58c16.07,7.83,34.76,17,43.75,30.77c38.51,59.03,71.58,119.85,52.69,194.58
			c-20.95,82.87-128.94,161.89-216.95,155.24c-11.07-0.84-22.34-3.78-32.63-7.82c-28.62-11.32-56.81-23.62-85.08-35.76
			c-26.4-11.33-44.2-30.3-54.64-56.4C703.06,1097.97,685.23,1056.39,690.35,1016.54L690.35,1016.54z M907.81,214.01
			c-17.82,0-35.2,1.57-51.65,4.67c-213.89,40.22-373.91,138.54-511.4,253.39c-57.48,48-135.64,101.16-159.99,179.75
			c-3.8,12.28-7.45,24.59-11.09,36.9c-6.08,20.52-12.35,41.76-19.35,62.65c-39.19,116.69-45.99,271.75-52.77,395.37l-2.36,43.72
			c-7.57,141.64,187.97,323.28,272.55,411.19c38.71,40.28,95.82,117.41,132.31,134.84c12.28,5.87,23.07-0.13,37.5,4.55
			c35.32,11.48,70.77,22.62,106.21,33.75l30.61,9.62c89.99,28.39,172.26,42.17,251.55,42.17c25.79,0,51.68-1.5,76.92-4.47
			c231.11-27.16,423.74-108.64,536.15-265.58l11.54-38.68c71.61-92.69,103.51-175.89,128.29-257.36
			c22-72.34,22.01-146.56,22.03-225.14l0.06-23.32c0.04-12.03,0.1-24.08-0.1-36.12c-1.04-57.63-3.63-118.87-22.29-177.75
			c-34.54-109-103.92-168.67-178.04-259.94c-56.93-70.11-128.42-156.93-212.52-196.35c-79.47-37.24-167.66-75.41-282.51-102.2
			C977.62,232.23,935.54,214.01,907.81,214.01L907.81,214.01z M919.43,1873.25c-0.02,0-0.02,0-0.02,0
			c-84.61,0-171.85-14.55-266.69-44.44l-30.17-9.5c-40.21-12.62-80.43-25.27-120.47-38.41c-73.69-24.18-107.66-113.51-161.7-169.69
			c-108.25-112.54-210.2-169.99-254.73-285.1c-19.3-49.92-27.4-98.01-24.79-147.02l2.35-43.23c2.83-51.72,5.77-105.18,7.69-157.68
			c2.71-73.7,17.95-149.59,47.92-238.85c6.58-19.64,12.64-40.11,18.5-59.9c3.66-12.38,7.32-24.76,11.15-37.09
			c28.44-91.85,94.1-155.86,154.58-206.36C446.8,315.93,624.38,237.31,845.9,195.66c49.97-9.39,103.65-7.18,163.71,6.86
			c117.59,27.42,210.69,58.17,293.03,96.76c91.2,42.75,160.23,152.41,222.03,228.5c76.71,94.5,157.18,139.58,194.25,256.56
			c20.67,65.22,23.52,132.88,24.58,191.18c0.21,12.3,0.16,24.6,0.1,36.89l-0.06,22.74c-0.01,78.18-0.02,159-24.15,238.28
			c-26.5,87.13-73.75,172.92-148.73,269.99c-7.76,10.06-15.26,20.3-22.67,30.65c-121.16,169.16-299.58,265.43-545.49,294.34
			C975.23,1871.62,947.28,1873.25,919.43,1873.25L919.43,1873.25z"/>
	</g>
	<g>
		<g>
			<path class="st2" d="M2264.17,965.29h-2.73l-149.59-224.05v341.54h-83.34V604.62h89.48l145.5,226.1l145.5-226.1h89.48v478.16
				h-83.34V739.87L2264.17,965.29z"/>
			<path class="st2" d="M2878.94,834.83c-7.28-23.67-18.11-44.38-32.43-62.19c-14.38-17.75-32.37-31.84-53.97-42.31
				c-21.66-10.47-46.81-15.74-75.51-15.74c-25.92,0-49.65,5.03-71.01,15.03c-21.42,10.06-39.94,23.55-55.68,40.65
				c-15.68,17.1-27.87,36.99-36.51,59.77c-8.7,22.78-13.02,47.16-13.02,73.08c0,28.23,4.79,53.85,14.38,76.87
				c9.53,23.02,22.61,42.67,39.23,59.06c16.63,16.39,36.22,29.17,58.76,38.29c22.55,9.11,46.81,13.67,72.73,13.67
				c33.26,0,61.84-6.15,85.75-18.46c23.91-12.31,44.5-28.7,61.84-49.18l-48.52-43.02c-14.56,14.08-29.35,24.79-44.38,32.07
				c-15.03,7.28-32.78,10.95-53.32,10.95c-26.87,0-49.59-7.87-68.29-23.55c-18.64-15.74-30.48-38.41-35.51-67.99h265.05
				c0.41-4.08,0.77-7.99,1.01-11.6c0.24-3.67,0.35-7.28,0.35-10.95C2889.88,883.29,2886.22,858.5,2878.94,834.83z M2622.76,877.2
				c3.67-28.29,13.79-51.13,30.42-68.7c16.63-17.52,37.7-26.27,63.2-26.27c13.67,0,25.8,2.49,36.51,7.52
				c10.71,5.03,19.94,11.72,27.69,20.18c7.75,8.4,13.91,18.4,18.46,30c4.5,11.66,7.51,24.03,8.88,37.28H2622.76z"/>
			<path class="st3" d="M2807.93,877.2h-185.16c3.67-28.29,13.79-51.13,30.42-68.7c16.63-17.52,37.7-26.27,63.2-26.27
				c13.67,0,25.8,2.49,36.51,7.52c10.71,5.03,19.94,11.72,27.69,20.18c7.75,8.4,13.91,18.4,18.46,30
				C2803.55,851.57,2806.56,863.94,2807.93,877.2z"/>
			<path class="st2" d="M3295.61,666.78v-78.56h89.48v78.56H3295.61z M3299.03,1082.78V722.11h83.34v360.67H3299.03z"/>
			<path class="st2" d="M3521.71,1082.78h-83.34V722.11h83.34v56.59c5.9-8.73,12.37-16.89,19.41-24.47
				c7.03-7.58,15.21-14.35,24.52-20.33c9.31-5.98,19.53-10.69,30.65-14.13c11.12-3.45,23.73-5.18,37.81-5.18
				c40.87,0,72.43,12.53,94.68,37.57c22.24,25.05,33.37,58.75,33.37,101.1v229.52h-83.34V878.33c0-28.17-6.66-49.86-19.98-65.08
				s-32.17-22.83-56.55-22.83c-23.93,0-43.33,7.85-58.23,23.51c-14.9,15.68-22.35,37.6-22.35,65.76V1082.78z"/>
			<path class="st2" d="M4074.3,756.6c-25.92-26.63-65.8-39.94-119.54-39.94c-29.59,0-54.86,2.72-75.8,8.17
				c-20.95,5.5-41.42,12.78-61.49,21.9l22.55,66.22c16.39-6.81,32.55-12.25,48.52-16.39c15.92-4.08,34.15-6.1,54.62-6.1
				c28.7,0,50.66,6.57,65.92,19.77c15.27,13.26,22.9,32.37,22.9,57.4v8.88c-14.14-4.56-28.82-8.17-44.09-10.95
				c-15.27-2.72-33.79-4.08-55.68-4.08c-20.95,0-40.42,2.37-58.41,7.16c-17.99,4.79-33.43,11.95-46.39,21.54
				c-13.02,9.53-23.14,21.6-30.42,36.22c-7.28,14.56-10.95,31.66-10.95,51.19v1.36c0,18.23,3.55,34.32,10.59,48.17
				c7.04,13.91,16.39,25.51,27.99,34.86c11.66,9.35,25.15,16.39,40.65,21.19c15.5,4.79,31.9,7.16,49.18,7.16
				c27.34,0,50.54-5.03,69.71-15.03c19.11-10,34.8-22.31,47.1-36.87v44.38h81.96v-213.8C4113.24,820.68,4100.28,783.23,4074.3,756.6
				z M4033.35,952.29c0,11.42-2.43,21.78-7.16,31.13c-4.79,9.29-11.54,17.28-20.18,23.91c-8.64,6.57-18.76,11.72-30.42,15.33
				c-11.6,3.67-24.2,5.5-37.87,5.5c-19.59,0-36.1-4.56-49.53-13.67c-13.43-9.11-20.18-22.31-20.18-39.65v-1.36
				c0-18.64,7.28-33.02,21.9-43.02c14.56-10,34.8-15.03,60.77-15.03c15.92,0,31.07,1.36,45.45,4.08
				c14.32,2.72,26.75,6.15,37.22,10.24V952.29z"/>
			<path class="st3" d="M4033.35,929.75v22.55c0,11.42-2.43,21.78-7.16,31.13c-4.79,9.29-11.54,17.28-20.18,23.91
				c-8.64,6.57-18.76,11.72-30.42,15.33c-11.6,3.67-24.2,5.5-37.87,5.5c-19.59,0-36.1-4.56-49.53-13.67
				c-13.43-9.11-20.18-22.31-20.18-39.65v-1.36c0-18.64,7.28-33.02,21.9-43.02c14.56-10,34.8-15.03,60.77-15.03
				c15.92,0,31.07,1.36,45.45,4.08C4010.45,922.23,4022.88,925.66,4033.35,929.75z"/>
			<path class="st2" d="M4431.55,646.35v131.78c-13.14-16.87-29.53-31.66-49.06-44.38c-19.53-12.78-44.09-19.17-73.62-19.17
				c-21.3,0-42.13,4.14-62.31,12.31c-20.24,8.23-38.05,20.42-53.5,36.57c-15.44,16.16-27.87,35.86-37.16,59.06
				c-9.29,23.26-13.97,49.89-13.97,79.95c0,30.06,4.79,56.69,14.32,79.89c9.53,23.26,22.01,42.96,37.46,59.12
				c15.44,16.16,33.2,28.35,53.14,36.51c20,8.23,40.71,12.31,62.02,12.31c29.12,0,53.5-6.63,73.26-19.82
				c19.76-13.2,36.28-29.11,49.41-47.81v60.12h83.38V584.1h-21.13C4459.43,584.1,4431.55,611.97,4431.55,646.35z M4424.39,950.28
				c-5.62,14.08-13.26,26.27-22.78,36.51s-20.65,18.11-33.38,23.61c-12.66,5.44-25.86,8.17-39.47,8.17
				c-14.08,0-27.34-2.72-39.83-8.17c-12.49-5.5-23.49-13.26-33.02-23.26c-9.53-10-17.04-22.19-22.49-36.57
				c-5.44-14.32-8.17-30.36-8.17-48.11c0-18.23,2.72-34.5,8.17-48.88c5.44-14.32,12.96-26.51,22.49-36.51
				c9.53-10,20.53-17.63,33.02-22.9c12.49-5.21,25.74-7.87,39.83-7.87c13.61,0,26.81,2.72,39.47,8.23
				c12.72,5.44,23.85,13.31,33.38,23.55c9.53,10.24,17.16,22.43,22.78,36.57c5.68,14.08,8.52,30,8.52,47.81
				C4432.91,920.22,4430.07,936.14,4424.39,950.28z"/>
			<path class="st3" d="M4432.91,902.47c0,17.75-2.84,33.67-8.52,47.81c-5.62,14.08-13.26,26.27-22.78,36.51
				s-20.65,18.11-33.38,23.61c-12.66,5.44-25.86,8.17-39.47,8.17c-14.08,0-27.34-2.72-39.83-8.17
				c-12.49-5.5-23.49-13.26-33.02-23.26c-9.53-10-17.04-22.19-22.49-36.57c-5.44-14.32-8.17-30.36-8.17-48.11
				c0-18.23,2.72-34.5,8.17-48.88c5.44-14.32,12.96-26.51,22.49-36.51c9.53-10,20.53-17.63,33.02-22.9
				c12.49-5.21,25.74-7.87,39.83-7.87c13.61,0,26.81,2.72,39.47,8.23c12.72,5.44,23.85,13.31,33.38,23.55
				c9.53,10.24,17.16,22.43,22.78,36.57C4430.07,868.74,4432.91,884.65,4432.91,902.47z"/>
			<path class="st2" d="M4830.52,756.6c-25.98-26.63-65.86-39.94-119.6-39.94c-29.59,0-54.86,2.72-75.8,8.17
				c-20.95,5.5-41.42,12.78-61.48,21.9l22.55,66.22c16.39-6.81,32.55-12.25,48.52-16.39c15.92-4.08,34.15-6.1,54.62-6.1
				c28.7,0,50.66,6.57,65.92,19.77c15.27,13.26,22.9,32.37,22.9,57.4v8.88c-14.14-4.56-28.82-8.17-44.09-10.95
				c-15.27-2.72-33.79-4.08-55.63-4.08c-21.01,0-40.48,2.37-58.41,7.16c-18.05,4.79-33.49,11.95-46.45,21.54
				c-13.02,9.53-23.14,21.6-30.42,36.22c-7.28,14.56-10.95,31.66-10.95,51.19v1.36c0,18.23,3.55,34.32,10.59,48.17
				c7.04,13.91,16.39,25.51,27.99,34.86c11.66,9.35,25.21,16.39,40.65,21.19c15.5,4.79,31.9,7.16,49.18,7.16
				c27.34,0,50.6-5.03,69.71-15.03c19.11-10,34.85-22.31,47.1-36.87v44.38h81.96v-213.8C4869.4,820.68,4856.44,783.23,4830.52,756.6
				z M4789.51,952.29c0,11.42-2.37,21.78-7.16,31.13c-4.79,9.29-11.54,17.28-20.18,23.91c-8.64,6.57-18.76,11.72-30.42,15.33
				c-11.6,3.67-24.2,5.5-37.87,5.5c-19.59,0-36.1-4.56-49.53-13.67c-13.43-9.11-20.18-22.31-20.18-39.65v-1.36
				c0-18.64,7.28-33.02,21.9-43.02c14.56-10,34.85-15.03,60.77-15.03c15.92,0,31.07,1.36,45.45,4.08
				c14.32,2.72,26.75,6.15,37.22,10.24V952.29z"/>
			<path class="st3" d="M4789.51,929.75v22.55c0,11.42-2.37,21.78-7.16,31.13c-4.79,9.29-11.54,17.28-20.18,23.91
				c-8.64,6.57-18.76,11.72-30.42,15.33c-11.6,3.67-24.2,5.5-37.87,5.5c-19.59,0-36.1-4.56-49.53-13.67
				c-13.43-9.11-20.18-22.31-20.18-39.65v-1.36c0-18.64,7.28-33.02,21.9-43.02c14.56-10,34.85-15.03,60.77-15.03
				c15.92,0,31.07,1.36,45.45,4.08C4766.61,922.23,4779.04,925.66,4789.51,929.75z"/>
			<path class="st2" d="M3212.4,752.16c-22.25-25.03-53.85-37.58-94.68-37.58c-14.08,0-26.69,1.72-37.81,5.21
				c-11.13,3.43-21.36,8.17-30.65,14.14c-9.29,5.98-17.52,12.72-24.5,20.3c-7.1,7.57-13.55,15.74-19.47,24.5h-5.92
				c23.43-68.88-53.55-122.79-76.22-151.67c-14.91,65.51-18.58,110.42,26.45,152.08l-27.64,0.18v303.46h83.32V879.68
				c0-28.17,7.46-50.06,22.37-65.75c14.91-15.68,34.32-23.49,58.23-23.49c24.38,0,43.26,7.57,56.57,22.78
				c13.31,15.27,19.94,36.93,19.94,65.09v204.46h83.38V853.29C3245.77,810.92,3234.65,777.19,3212.4,752.16z M2980.01,778.91h-0.95
				c-0.95-23.73-30-43.61-27.4-70.3C2957.88,727.54,2987.41,751.21,2980.01,778.91z"/>
			<path class="st3" d="M2980.01,778.91h-0.95c-0.95-23.73-30-43.61-27.4-70.3C2957.88,727.54,2987.41,751.21,2980.01,778.91z"/>
		</g>
		<g>
			<path class="st2" d="M2369.04,1691.83c-27.29,14.76-60.43,21.91-98.45,21.91c-30,0-57.29-5.82-82.8-17.42
				c-25.51-11.64-47.46-27.77-65.8-47.91c-18.36-20.15-32.69-43.85-42.97-71.17c-10.31-27.29-15.22-55.94-15.22-86.36v-1.81
				c0-30.43,4.91-59.06,15.22-85.94c10.29-26.84,24.61-50.11,42.97-70.25c18.33-20.14,40.29-35.8,65.8-47.44
				c25.51-11.64,52.8-17.46,82.8-17.46c35.8,0,67.57,7.15,95.77,21.47c28.19,14.32,54.6,33.14,79.66,56.42l70.71-81.47
				c-14.78-14.32-30.87-27.3-47.43-39.4c-16.55-12.08-34.91-22.37-54.6-30.87c-19.7-8.5-41.2-15.21-64.9-20.14
				c-23.73-4.91-49.69-7.17-78.34-7.17c-47.88,0-91.31,8.5-130.68,25.51c-39.39,17.01-73.4,40.29-102.05,69.83
				c-28.65,29.56-51.02,63.99-66.7,102.95c-15.65,38.94-23.7,81-23.7,125.78v1.79c0,44.74,8.05,86.84,24.15,126.21
				c16.13,39.38,38.51,73.39,66.7,102.49c28.19,29.1,61.76,51.93,100.72,68.48c38.92,16.55,80.99,25.05,127.09,25.05
				c29.1,0,55.94-2.68,80.12-7.59c24.15-4.95,46.52-12.54,66.67-22.41c20.14-9.84,39.42-21.48,56.84-34.89
				c17.46-13.44,34.47-28.65,50.6-46.1l-70.75-71.61C2423.64,1657.36,2396.36,1677.05,2369.04,1691.83z"/>
			<path class="st2" d="M3325.25,1478.79c-9.41-30.89-23.73-57.76-42.55-81.01c-18.76-23.26-42.49-41.6-70.72-55.51
				c-28.17-13.85-61.31-20.59-98.88-20.59c-34.03,0-64.92,6.27-93.09,19.29c-28.23,12.96-52.37,30.42-72.96,52.79
				c-20.59,22.37-36.69,48.35-47.87,78.35c-11.18,29.94-17.04,61.72-17.04,95.75v1.78c0,36.28,6.27,69.83,18.82,99.83
				c12.54,30,29.53,55.92,51.48,77.4c21.9,21.48,47.4,38.05,76.99,50.18c29.53,12.07,61.31,17.87,95.33,17.87
				c43.38,0,81.01-8.05,112.32-24.14c31.3-16.16,58.17-37.64,81.01-64.5l-63.56-56.4c-19.23,18.4-38.52,32.72-58.17,42.07
				c-19.71,9.41-42.96,14.32-69.83,14.32c-35.39,0-65.33-10.24-89.95-30.83c-24.62-20.59-40.3-50.12-46.1-89.12h347.31
				c0.41-5.33,0.89-10.71,1.3-15.62c0.47-4.91,0.47-9.88,0.47-14.79C3339.57,1541.87,3334.66,1509.68,3325.25,1478.79z
				 M2989.6,1534.71c4.91-37.1,17.87-67.11,39.83-89.95c21.9-22.84,49.24-34.44,82.79-34.44c17.87,0,34.03,3.14,47.87,9.82
				c13.91,6.75,25.98,15.21,36.28,26.39c10.3,11.18,18.35,24.2,24.14,39.41c5.8,15.21,9.88,31.36,11.66,48.76H2989.6z"/>
			<path class="st3" d="M3232.16,1534.71H2989.6c4.91-37.1,17.87-67.11,39.83-89.95c21.9-22.84,49.24-34.44,82.79-34.44
				c17.87,0,34.03,3.14,47.87,9.82c13.91,6.75,25.98,15.21,36.28,26.39c10.3,11.18,18.35,24.2,24.14,39.41
				C3226.3,1501.16,3230.39,1517.32,3232.16,1534.71z"/>
			<path class="st2" d="M3680.69,1570.08c-13.91-10.31-29.56-19.23-47.01-26.4c-17.46-7.15-34.47-13.43-51.92-18.79
				c-13.87-4.03-26.84-8.5-39.83-12.98c-12.97-4.47-24.16-9.38-34.01-14.32c-9.83-4.91-17.92-10.73-23.7-17.01
				c-5.82-6.28-8.96-13.43-8.96-21.93v-1.77c0-13.91,5.82-25.09,17.46-34.01c11.61-8.96,27.74-13.45,48.76-13.45
				c19.72,0,41.18,4.04,64.46,12.08c23.28,8.07,46.11,18.8,68.93,32.67l42.97-76.98c-25.09-16.55-52.82-29.97-83.26-39.38
				c-30.45-9.38-60.43-14.32-90.39-14.32c-23.28,0-45.23,3.14-65.8,9.85c-20.62,6.73-38.5,16.11-53.73,28.65
				c-15.22,12.52-27.28,27.76-35.82,45.65c-8.5,17.92-12.96,38.06-12.96,59.98v1.79c0,22.82,4.45,41.63,13.41,57.28
				c8.96,15.68,20.6,28.65,34.47,38.92c13.87,10.31,30,18.81,47.46,25.51c17.44,6.74,34.91,12.1,52.37,17.01
				c13.87,4.05,26.84,8.5,39.83,12.54c12.97,4.04,24.16,8.51,34.01,13.42c9.84,4.94,17.46,10.3,23.28,17
				c5.82,6.74,8.5,14.32,8.5,23.29v1.8c0,15.66-6.27,27.74-19.27,37.15c-12.97,9.38-30.87,13.87-54.16,13.87
				c-24.6,0-50.12-4.94-76.52-14.78c-26.41-9.85-52.83-24.18-78.34-43.41l-48.33,73.39c30,23.29,62.2,40.75,97.12,52.83
				c34.91,12.1,69.38,17.91,103.39,17.91c24.63,0,47.46-3.14,68.93-9.41c21.49-6.26,40.29-15.68,55.96-27.73
				c15.65-12.1,28.19-27.77,37.15-46.11c8.92-18.36,13.41-40.29,13.41-65.34v-1.8c0-21.48-4.49-39.84-13.41-54.61
				C3706.2,1593.37,3694.56,1580.38,3680.69,1570.08z"/>
			<path class="st2" d="M2703.06,1425c-6.75,6.86-12.96,14.32-18.76,22.25v-115.69h-108.29v472.64h108.29v-227.95
				c0-46.16,8.7-92.37,36.51-130.13c147.59,13.61,196.64-53.26,255.41-173.86C2909.83,1287.77,2726.38,1273.75,2703.06,1425z
				 M2734.72,1419.44c16.87-50.54,85.87-49.41,115.69-68.76C2824.08,1390.97,2759.34,1383.87,2734.72,1419.44z"/>
			<path class="st3" d="M2850.41,1350.68c-26.33,40.3-91.07,33.2-115.69,68.76C2751.59,1368.9,2820.59,1370.03,2850.41,1350.68z"/>
			<path class="st2" d="M4643.52,1478.79c-9.41-30.89-23.73-57.76-42.49-81.01c-18.82-23.26-42.55-41.6-70.72-55.51
				c-28.23-13.85-61.31-20.59-98.94-20.59c-34.03,0-64.86,6.27-93.08,19.29c-28.17,12.96-52.37,30.42-72.96,52.79
				c-20.59,22.37-36.69,48.35-47.87,78.35c-11.18,29.94-16.98,61.72-16.98,95.75v1.78c0,36.28,6.27,69.83,18.76,99.83
				c12.54,30,29.53,55.92,51.48,77.4c21.95,21.48,47.46,38.05,76.99,50.18c29.53,12.07,61.31,17.87,95.33,17.87
				c43.38,0,81.01-8.05,112.32-24.14c31.36-16.16,58.23-37.64,81.01-64.5l-63.56-56.4c-19.23,18.4-38.46,32.72-58.17,42.07
				c-19.71,9.41-42.96,14.32-69.83,14.32c-35.33,0-65.33-10.24-89.95-30.83c-24.62-20.59-40.3-50.12-46.1-89.12h347.31
				c0.41-5.33,0.89-10.71,1.36-15.62c0.41-4.91,0.41-9.88,0.41-14.79C4657.84,1541.87,4652.93,1509.68,4643.52,1478.79z
				 M4307.87,1534.71c4.91-37.1,17.87-67.11,39.83-89.95c21.95-22.84,49.23-34.44,82.79-34.44c17.93,0,34.03,3.14,47.87,9.82
				c13.91,6.75,25.98,15.21,36.28,26.39s18.34,24.2,24.14,39.41c5.86,15.21,9.88,31.36,11.66,48.76H4307.87z"/>
			<path class="st3" d="M4550.44,1534.71h-242.56c4.91-37.1,17.87-67.11,39.83-89.95c21.95-22.84,49.23-34.44,82.79-34.44
				c17.93,0,34.03,3.14,47.87,9.82c13.91,6.75,25.98,15.21,36.28,26.39s18.34,24.2,24.14,39.41
				C4544.64,1501.16,4548.66,1517.32,4550.44,1534.71z"/>
			<path class="st2" d="M4881.27,1352.11c-27.32,21.5-48.79,50.14-63.57,85.95v-106.51h-108.31v472.62h108.31v-179.93
				c0-30.87,4.05-58.19,11.64-81.89c7.61-23.73,18.79-42.97,33.12-58.64c14.33-15.66,31.33-27.3,51.02-34.93
				c19.69-7.59,41.64-11.64,65.34-11.64h6.28v-114.55C4943.48,1320.78,4908.57,1330.63,4881.27,1352.11z"/>
			<path class="st2" d="M4070.36,1704.36c-19.27,11.19-42.1,16.55-67.6,16.55c-21.02,0-39.83-4.03-57.26-12.08
				c-17.46-8.06-32.24-18.79-44.77-32.66c-12.52-13.87-22.37-29.99-29.1-48.34c-6.7-18.35-10.27-38.06-10.27-59.09v-1.79
				c0-20.15,3.58-39.84,10.27-58.19c6.73-18.34,16.13-34.47,28.23-47.88c12.06-13.43,26.39-24.16,42.94-32.24
				c16.58-8.04,34.92-12.06,54.61-12.06c27.31,0,50.59,5.37,69.37,16.55c18.8,11.19,36.71,25.07,53.26,42.52l67.15-72.51
				c-21.95-24.6-47.91-44.31-77.44-59.06c-29.54-14.78-66.69-22.39-111.43-22.39c-35.38,0-68.04,6.73-98.04,19.71
				c-29.98,12.99-55.93,30.87-77.86,53.24c-21.95,22.4-38.96,48.79-51.02,78.79c-12.1,29.98-18.35,61.76-18.35,95.32v1.8
				c0,33.56,6.26,64.89,18.35,94.86c12.06,30,29.07,55.96,51.02,77.9c21.93,21.92,47.44,39.38,77.44,52.37
				c29.96,12.98,62.2,19.23,97.55,19.23c46.11,0,83.7-8.04,113.68-24.59c30-16.59,56.41-37.61,79.66-64.03l-65.34-64.43
				C4107.97,1679.31,4089.59,1693.17,4070.36,1704.36z"/>
		</g>
		<path class="st2" d="M2046.25,175.72h26.89v153.02h-26.89V175.72L2046.25,175.72z M2319.96,175.72h24.92l81.98,105.8v-105.8h26.45
			v153.02h-22.52l-84.39-108.87v108.87h-26.45V175.72L2319.96,175.72z M2752.17,330.92c-11.81,0-23.06-1.97-33.88-6.01
			c-10.82-4.05-20.77-10.17-29.95-18.47l16.18-19.24c7.43,6.45,14.98,11.37,22.51,14.75c7.55,3.39,16.18,5.14,25.8,5.14
			c8.3,0,14.86-1.75,19.78-5.25c4.92-3.49,7.32-8.19,7.32-13.99v-0.43c0-2.73-0.43-5.25-1.42-7.33c-0.98-2.08-2.73-4.16-5.25-6.02
			c-2.51-1.86-6.01-3.61-10.49-5.24c-4.48-1.64-10.27-3.17-17.38-4.81c-8.19-1.86-15.41-4.04-21.75-6.45
			c-6.34-2.41-11.69-5.35-15.96-8.74c-4.26-3.39-7.54-7.66-9.83-12.57c-2.29-4.93-3.39-10.93-3.39-17.93v-0.44
			c0-6.56,1.31-12.57,3.93-18.03c2.62-5.47,6.23-10.17,10.82-14c4.59-3.82,10.05-6.88,16.5-9.07c6.45-2.19,13.44-3.28,20.99-3.28
			c11.26,0,21.32,1.64,30.28,4.92c8.97,3.28,17.38,8.08,25.25,14.31l-14.43,20.33c-6.99-5.14-13.88-8.97-20.77-11.69
			c-6.89-2.73-13.78-4.05-20.77-4.05c-7.87,0-14,1.75-18.36,5.24c-4.38,3.5-6.56,7.76-6.56,12.91v0.43c0,2.95,0.54,5.46,1.52,7.76
			c0.99,2.29,2.85,4.26,5.58,6.13c2.73,1.86,6.45,3.49,11.14,5.13c4.7,1.64,10.72,3.28,18.04,5.03c7.98,2.08,15.09,4.26,21.31,6.78
			c6.23,2.51,11.37,5.46,15.41,9.06c4.05,3.61,7.21,7.77,9.29,12.46c2.08,4.7,3.17,10.28,3.17,16.51v0.44
			c0,7.1-1.31,13.55-4.05,19.24c-2.74,5.68-6.45,10.49-11.26,14.42c-4.81,3.94-10.61,6.88-17.27,8.97
			C2767.58,329.94,2760.15,330.92,2752.17,330.92L2752.17,330.92z M3082.06,200.63h-48.54v-24.91h124.17v24.91h-48.53v128.1h-27.1
			V200.63L3082.06,200.63z M3393.59,175.72h26.89v153.02h-26.89V175.72L3393.59,175.72z M3704.91,200.63h-48.54v-24.91h124.17v24.91
			h-48.53v128.1h-27.11V200.63L3704.91,200.63z M4077.64,331.15c-9.94,0-18.91-1.43-26.88-4.27c-7.98-2.84-14.87-7.1-20.55-12.79
			c-5.69-5.68-10.06-12.68-13.12-21.09c-3.05-8.42-4.59-18.15-4.59-29.18v-88.1h26.88v87c0,14.32,3.39,25.14,10.28,32.57
			c6.88,7.44,16.28,11.15,28.42,11.15c11.92,0,21.32-3.61,28.21-10.71c6.88-7.1,10.27-17.82,10.27-31.92v-88.1h26.89v86.78
			c0,11.37-1.53,21.32-4.7,29.96c-3.17,8.63-7.54,15.74-13.23,21.53c-5.69,5.79-12.57,10.05-20.66,12.89
			C4096.77,329.72,4087.7,331.15,4077.64,331.15L4077.64,331.15z M4423.93,200.63h-48.53v-24.91h124.17v24.91h-48.54v128.1h-27.1
			V200.63L4423.93,200.63z M4807.39,306.66c7.54,0,14.54-1.43,20.88-4.27c6.34-2.84,11.81-6.66,16.29-11.58
			c4.49-4.92,8.09-10.61,10.61-17.16c2.52-6.56,3.82-13.55,3.82-20.99v-0.43c0-7.43-1.31-14.42-3.82-21.09
			c-2.51-6.67-6.12-12.35-10.71-17.27c-4.59-4.93-10.05-8.75-16.51-11.7c-6.45-2.94-13.44-4.37-20.99-4.37
			c-7.54,0-14.54,1.43-20.88,4.26c-6.34,2.85-11.81,6.67-16.29,11.59c-4.48,4.92-8.09,10.6-10.6,17.16s-3.82,13.55-3.82,20.99v0.43
			c0,7.44,1.31,14.42,3.82,21.1c2.51,6.66,6.12,12.35,10.71,17.27c4.59,4.92,10.06,8.75,16.51,11.69
			C4792.85,305.24,4799.85,306.66,4807.39,306.66L4807.39,306.66z M4806.95,331.36c-11.8,0-22.63-2.08-32.35-6.24
			c-9.73-4.15-18.14-9.84-25.14-16.93c-6.99-7.11-12.46-15.53-16.4-25.03c-3.93-9.51-5.9-19.68-5.9-30.5v-0.43
			c0-10.82,1.97-20.99,5.9-30.49c3.94-9.5,9.51-17.93,16.62-25.14c7.1-7.21,15.63-12.91,25.36-17.17
			c9.73-4.26,20.56-6.34,32.36-6.34c11.81,0,22.62,2.08,32.35,6.23c9.73,4.16,18.15,9.84,25.14,16.94
			c6.99,7.11,12.46,15.53,16.4,25.03c3.93,9.51,5.9,19.68,5.9,30.5v0.43c0,10.82-1.97,20.99-5.9,30.49
			c-3.94,9.51-9.51,17.93-16.62,25.14c-7.11,7.21-15.63,12.9-25.36,17.16C4829.58,329.29,4818.75,331.36,4806.95,331.36
			L4806.95,331.36z"/>
	</g>
</g>
</svg>
