<?xml version="1.0" encoding="utf-8"?>
<!-- Generator: Adobe Illustrator 26.0.1, SVG Export Plug-In . SVG Version: 6.00 Build 0)  -->
<svg version="1.1"
	 id="svg10" xmlns:cc="http://creativecommons.org/ns#" xmlns:dc="http://purl.org/dc/elements/1.1/" xmlns:inkscape="http://www.inkscape.org/namespaces/inkscape" xmlns:rdf="http://www.w3.org/1999/02/22-rdf-syntax-ns#" xmlns:sodipodi="http://sodipodi.sourceforge.net/DTD/sodipodi-0.dtd" xmlns:svg="http://www.w3.org/2000/svg"
	 xmlns="http://www.w3.org/2000/svg" xmlns:xlink="http://www.w3.org/1999/xlink" x="0px" y="0px" viewBox="0 0 824 100"
	 style="enable-background:new 0 0 824 100;" xml:space="preserve">
<style type="text/css">
	.st0{fill:#4285F4;}
	.st1{fill:#EA4335;}
	.st2{fill:#FBBC05;}
	.st3{fill:#34A853;}
	.st4{fill:none;}
</style>
<sodipodi:namedview  bordercolor="#666666" borderopacity="1" gridtolerance="10" guidetolerance="10" id="namedview12" inkscape:current-layer="svg10" inkscape:cx="267.52699" inkscape:cy="39.247476" inkscape:document-rotation="0" inkscape:pageopacity="0" inkscape:pageshadow="2" inkscape:window-height="747" inkscape:window-maximized="1" inkscape:window-width="1235" inkscape:window-x="45" inkscape:window-y="25" inkscape:zoom="1.0878167" objecttolerance="10" pagecolor="#ffffff" showgrid="false" showguides="true">
	</sodipodi:namedview>
<g>
	<g id="use2460" transform="matrix(0.69853302,0,0,-0.69852941,1,3)" inkscape:label="Google">
		<path id="path3053" class="st0" d="M961.1-328.9c0,50.5,42.3,91.4,92.8,91.4c27.9,0,47.7-11,62.7-25.3l-17.8-17.5
			c-10.6,10.1-25.1,17.9-44.9,17.9c-36.7,0-65.5-29.6-65.5-66.4s28.7-66.4,65.5-66.4c23.9,0,37.4,9.6,46.1,18.3
			c7.1,7.1,11.8,17.4,13.6,31.3h-59.7v24.9h84.1c0.9-4.5,1.4-9.8,1.4-15.7c0-18.8-5.1-42-21.6-58.3c-16.2-16.7-36.7-25.6-63.9-25.6
			C1003.4-420.1,961.1-379.2,961.1-328.9z"/>
		<path id="path3055" class="st1" d="M1207.2-302.6c-32.6,0-59-24.7-59-58.9c0-34,26.5-58.9,59-58.9c32.6,0,59,24.9,59,58.9
			C1266.2-327.3,1239.7-302.6,1207.2-302.6z M1207.2-397c-17.8,0-33.3,14.7-33.3,35.7c0,21.2,15.3,35.7,33.3,35.7
			c17.8,0,33.3-14.5,33.3-35.7C1240.4-382.3,1224.9-397,1207.2-397z"/>
		<path id="path3057" class="st2" d="M1336-302.6c-32.6,0-59-24.7-59-58.9c0-34,26.5-58.9,59-58.9c32.6,0,59,24.9,59,58.9
			C1395.1-327.3,1368.6-302.6,1336-302.6z M1336-397c-17.8,0-33.3,14.6-33.3,35.7c0,21.2,15.3,35.7,33.3,35.7
			c17.9,0,33.3-14.5,33.3-35.7C1369.3-382.3,1353.8-397,1336-397z"/>
		<path id="path3059" class="st0" d="M1494.2-306.1v-9.6h-0.9c-5.7,7-16.9,13.2-31,13.2c-29.4,0-56.4-25.8-56.4-59
			c0-32.9,27-58.7,56.4-58.7c14.1,0,25.3,6.3,31,13.4h0.9v-8.5c0-22.5-12-34.5-31.3-34.5c-15.8,0-25.6,11.3-29.6,20.9l-22.5-9.4
			c6.4-15.7,23.7-34.8,52.2-34.8c30.3,0,55.9,17.8,55.9,61.3v105.7L1494.2-306.1L1494.2-306.1z M1464.6-397
			c-17.8,0-32.7,15-32.7,35.5c0,20.7,15,35.9,32.7,35.9c17.6,0,31.3-15.2,31.3-35.9C1496.1-382.2,1482.1-397,1464.6-397z"/>
		<polygon id="polygon3061" class="st3" points="1562.4,-416.7 1536.7,-416.7 1536.7,-243.7 1562.4,-243.7 		"/>
		<path id="path3063" class="st1" d="M1633.3-397c-13.2,0-22.5,6.1-28.6,17.8l78.7,32.6l-2.6,6.6c-4.9,13.2-19.9,37.4-50.3,37.4
			c-30.3,0-55.6-23.9-55.6-58.9c0-32.9,24.9-58.9,58.3-58.9c27,0,42.5,16.5,49.1,26.1l-20,13.4C1655.6-390.5,1646.5-397,1633.3-397
			L1633.3-397z M1631.4-325.2c10.3,0,19-5.1,21.8-12.5l-52.6-21.8C1599.9-336.9,1618.2-325.2,1631.4-325.2z"/>
		<polygon id="polygon3065" class="st4" points="959.9,-474.1 1684.3,-474.1 1684.3,-237.3 959.9,-237.3 		"/>
	</g>
	<g>
		<path d="M692.6,338v5.7h11.5v7.7h-11.5v36.7h-8.4v-36.7h-8.4v-7.7h8.4v-6.4c0-4.3,1.4-7.9,4.1-10.6c3-2.9,6.6-4.3,10.9-4.3
			c2.9,0,5.4,0.4,7.5,1.6l-2.3,7.2c-1.4-0.7-3.2-1.1-5-1.1c-2,0-3.8,0.7-5,2.3C693,333.7,692.6,335.5,692.6,338z"/>
		<path d="M744.9,348.7c-4.3-4.5-9.7-6.8-16.3-6.8s-12,2.3-16.3,6.8s-6.4,10.2-6.4,17c0,7,2,12.5,6.4,17c4.3,4.5,9.7,6.8,16.3,6.8
			s12-2.3,16.3-6.8s6.6-10.2,6.6-17C751.5,358.9,749.2,353.2,744.9,348.7z M739.3,377.2c-3,2.9-6.1,4.5-10.4,4.5
			c-4.3,0-7.7-1.6-10.4-4.5s-4.1-6.8-4.1-11.6c0-4.5,1.4-8.4,4.1-11.5c3-3,6.3-4.5,10.4-4.5c4.1,0,7.5,1.6,10.4,4.5
			c2.7,2.9,4.1,6.8,4.1,11.5S742,374.3,739.3,377.2z"/>
		<path d="M779.1,342.3c2.5,0,4.5,0.4,6.1,1.1l-2.5,8.2c-1.1-0.5-2.7-0.7-5-0.7c-3.2,0-5.9,1.4-8.2,3.8c-2.3,2.5-3.4,5.4-3.4,8.8
			v24.2h-8.4v-44.4h7.9v7.2h0.5c0.9-2.3,2.5-4.3,5.2-5.9C774.1,343.2,776.6,342.3,779.1,342.3z"/>
		<polygon points="809,323.1 846.8,323.1 846.8,331 817.4,331 817.4,351.6 844.1,351.6 844.1,359.3 817.4,359.3 817.4,379.9 
			846.8,379.9 846.8,387.9 809,387.9 		"/>
		<path d="M888.7,323.3v20.4l0.4,6.1h-0.4c-1.6-2.3-3.6-4.1-6.4-5.4c-2.7-1.4-5.7-2-8.8-2c-5.9,0-10.9,2.3-15,6.8
			c-4.1,4.8-6.1,10.2-6.1,16.8s2,12,6.1,16.8c4.1,4.5,9.1,6.8,15,6.8c3.2,0,6.1-0.7,8.8-2c2.7-1.4,5-3.2,6.4-5.4h0.4v6.1h7.9v-64.8
			h-8.3V323.3z M884.9,377.2c-2.5,2.9-5.9,4.5-10,4.5s-7.5-1.4-10-4.5c-2.7-2.9-4.1-6.8-4.1-11.6s1.4-8.6,4.1-11.5
			c2.7-3,5.9-4.5,10-4.5c3.8,0,7.2,1.6,10,4.5c2.7,3.2,4.1,6.8,4.1,11.5S887.6,374.3,884.9,377.2z"/>
		<path d="M935.9,343.7h8.4v44.2h-7.9v-6.1H936c-1.4,2.3-3.2,4.1-5.9,5.4c-2.5,1.4-5.2,2.3-8.2,2.3c-5.4,0-9.7-1.6-12.7-4.5
			c-3-3.2-4.3-7.5-4.3-13.4v-27.9h8.4v27.4c0.2,7.2,3.8,10.9,10.9,10.9c3.4,0,6.1-1.4,8.4-4.1c2.3-2.7,3.4-5.9,3.4-9.8v-24.4H935.9z
			"/>
		<path d="M985.9,372.7l7.5,3.2c-1.6,4.1-4.3,7-7.7,9.5c-3.4,3-7.5,4.1-12,4.1c-6.6,0-12-2.3-16.3-6.8s-6.3-10.2-6.3-17
			s2-12.5,6.3-17s9.7-6.8,16.3-6.8c4.5,0,8.4,1.1,11.8,3.4c3.4,2.3,5.9,5.4,7.7,9.3l-7.7,3.2c-2.3-5.7-6.6-8.4-12.5-8.4
			c-3.9,0-7,1.6-10,4.5c-2.7,3.2-4.1,6.8-4.1,11.3s1.4,8.4,4.1,11.3c2.7,3.2,6.1,4.5,10,4.5C979.1,381.1,983.4,378.4,985.9,372.7z"
			/>
		<path d="M1030.8,347.1c-3.4-3.4-8.4-5-14.5-5c-7.9,0-13.8,3-17.9,9.3l7.2,4.5c2.7-3.8,6.3-5.9,11.1-5.9c3.2,0,5.9,1.1,8.2,3.2
			c2.3,1.8,3.4,4.3,3.4,7.2v1.8c-3.2-1.8-7.3-2.7-12.2-2.7c-5.9,0-10.7,1.4-14,4.1c-3.4,2.7-5.2,6.3-5.2,10.9c0,4.3,1.8,7.9,5,10.9
			s7.2,4.3,12.2,4.3c5.9,0,10.4-2.7,13.8-7.7h0.5v6.1h7.9v-27.4C1036.2,354.8,1034.4,350.3,1030.8,347.1z M1024,378.1
			c-2.7,2.5-5.9,3.8-9.3,3.8c-2.5,0-4.8-0.9-6.6-2.3s-2.7-3.2-2.7-5.4c0-2.3,1.1-4.3,3.2-5.9c2.5-1.6,5.2-2.5,8.6-2.5
			c4.8,0,8.4,1.1,10.9,3.2C1028.1,372.5,1026.7,375.6,1024,378.1z"/>
		<path d="M1066.4,380.2l2.7,7.5c-2.3,0.7-4.8,1.1-7.7,1.1c-3.6,0-6.6-1.1-9.1-3.4c-2.3-2.3-3.6-5.4-3.6-9.3v-24.9h-7.7v-7.7h7.7
			v-13.6h8.4v13.6h10.9v7.7h-10.9v22.2c0,3,0.7,5,1.8,6.1c1.1,1.1,2.5,1.6,3.9,1.6c0.7,0,1.4,0,1.8-0.2
			C1065.2,380.6,1065.9,380.4,1066.4,380.2z"/>
		<rect x="1074.5" y="343.5" width="8.4" height="44.4"/>
		<path d="M1084.7,328.3c0,1.6-0.7,3-1.8,4.1c-1.1,1.1-2.5,1.8-4.1,1.8s-3-0.7-4.1-1.8c-1.1-1.1-1.8-2.5-1.8-4.1s0.7-2.9,1.8-4.1
			c1.1-1.1,2.5-1.8,4.1-1.8s2.9,0.7,4.1,1.8C1084,325.1,1084.7,326.7,1084.7,328.3z"/>
		<path d="M1128.9,348.7c-4.3-4.5-9.7-6.8-16.3-6.8c-6.6,0-12,2.3-16.3,6.8s-6.3,10.2-6.3,17c0,7,2,12.5,6.3,17s9.7,6.8,16.3,6.8
			c6.6,0,12-2.3,16.3-6.8s6.6-10.2,6.6-17C1135.5,358.9,1133.2,353.2,1128.9,348.7z M1123.2,377.2c-2.9,2.9-6.3,4.5-10.4,4.5
			c-4.3,0-7.7-1.6-10.4-4.5c-2.7-2.9-4.1-6.8-4.1-11.6c0-4.5,1.4-8.4,4.1-11.5c3-3,6.3-4.5,10.4-4.5s7.5,1.6,10.4,4.5
			c2.7,2.9,4.1,6.8,4.1,11.5S1125.9,374.3,1123.2,377.2z"/>
		<path d="M1181.2,359.8v27.9h-8.4v-27.4c-0.2-7.2-3.8-10.9-10.9-10.9c-3.4,0-6.1,1.4-8.4,4.1s-3.4,5.9-3.4,9.5v24.5h-8.4v-43.9h7.9
			v6.1h0.4c1.4-2.3,3.2-4.1,5.9-5.4c2.7-1.4,5.4-2.3,8.2-2.3c5.4,0,9.5,1.6,12.5,4.8C1179.6,349.8,1181.2,354.1,1181.2,359.8z"/>
	</g>
</g>
</svg>
