<?xml version="1.0" encoding="utf-8"?>
<!-- Generator: Adobe Illustrator 26.0.1, SVG Export Plug-In . SVG Version: 6.00 Build 0)  -->
<svg version="1.1" id="Camada_3" xmlns="http://www.w3.org/2000/svg" xmlns:xlink="http://www.w3.org/1999/xlink" x="0px" y="0px"
	 viewBox="0 0 595.28 315.87" style="enable-background:new 0 0 595.28 315.87;" xml:space="preserve">
<style type="text/css">
	.st0{fill:#655CA6;}
</style>
<g>
	<path class="st0" d="M154.81,126.87c-5.49,0-10.63,1.47-15.06,4.04c-8.98,5.2-15.01,14.9-15.01,26.02v52.87
		c0,4.44,3.6,8.04,8.03,8.04c4.44,0,8.04-3.6,8.04-8.04v-26.26c4.18,2.21,8.94,3.46,14,3.46c16.6,0,30.06-13.46,30.06-30.07
		C184.87,140.33,171.41,126.87,154.81,126.87z M154.81,171.74c-6.49,0-12.01-4.17-14-9.99c-0.53-1.51-0.81-3.13-0.81-4.82
		c0-1.68,0.28-3.3,0.81-4.81c1.99-5.81,7.51-9.99,14-9.99c8.17,0,14.8,6.63,14.8,14.8C169.61,165.11,162.98,171.74,154.81,171.74z"
		/>
	<path class="st0" d="M202.81,188.71L202.81,188.71c-4.44,0-8.03-3.6-8.03-8.03v-74.9c0-4.44,3.6-8.03,8.03-8.03h0
		c4.44,0,8.03,3.6,8.03,8.03v74.9C210.84,185.11,207.24,188.71,202.81,188.71z"/>
	<path class="st0" d="M415.9,188.82L415.9,188.82c-4.44,0-8.03-3.6-8.03-8.03v-74.9c0-4.44,3.6-8.03,8.03-8.03l0,0
		c4.44,0,8.03,3.6,8.03,8.03v74.9C423.94,185.23,420.34,188.82,415.9,188.82z"/>
	<path class="st0" d="M446.35,188.82L446.35,188.82c-4.44,0-8.03-3.6-8.03-8.03v-74.9c0-4.44,3.6-8.03,8.03-8.03h0
		c4.44,0,8.03,3.6,8.03,8.03v74.9C454.39,185.23,450.79,188.82,446.35,188.82z"/>
	<circle class="st0" cx="229.98" cy="134.04" r="7.86"/>
	<circle class="st0" cx="275.69" cy="134.04" r="7.86"/>
	<path class="st0" d="M283.55,156.93c0,0.14,0,0.28-0.01,0.42c-0.22,16.87-13.96,30.47-30.88,30.47c-16.91,0-30.65-13.6-30.87-30.47
		c-0.01-0.14-0.01-0.28-0.01-0.42c0-0.14,0-0.28,0.01-0.42c0.21-4.31,3.67-7.74,7.89-7.74c4.37,0,7.9,3.65,7.9,8.16
		c0,8.33,6.76,15.08,15.08,15.08c8.33,0,15.08-6.75,15.08-15.08c0-4.51,3.54-8.16,7.91-8.16c4.22,0,7.68,3.43,7.89,7.74
		C283.55,156.65,283.55,156.79,283.55,156.93z"/>
	<path class="st0" d="M333.74,134.95c0,4.37-3.65,7.9-8.16,7.9c-7.81,0-14.66,5.91-15,13.54c-0.02,0.51-0.03,2.57,0,3.08v21.4
		c0,4.39-3.56,7.95-7.95,7.95l0,0c-4.39,0-7.95-3.56-7.95-7.95v-22.95c0-16.91,13.6-30.65,30.47-30.87
		c0.14-0.01,0.28-0.01,0.42-0.01c0.14,0,0.28,0,0.42,0.01C330.31,127.27,333.74,130.73,333.74,134.95z"/>
	<path class="st0" d="M381.47,129.84c-4.4-2.42-9.45-3.79-14.82-3.79c-17.06,0-30.89,13.83-30.89,30.88
		c0,17.06,13.83,30.89,30.89,30.89c5.6,0,10.85-1.49,15.38-4.09c1.17,2.98,4.07,5.09,7.47,5.09c4.43,0,8.03-3.6,8.03-8.03v-23.86
		C397.53,145.25,391.04,135.08,381.47,129.84z M366.65,171.26c-7.91,0-14.33-6.41-14.33-14.33c0-7.91,6.42-14.32,14.33-14.32
		c7.91,0,14.32,6.41,14.32,14.32C380.97,164.85,374.56,171.26,366.65,171.26z"/>
</g>
</svg>
