<?xml version="1.0" encoding="utf-8"?>
<!-- Generator: Adobe Illustrator 26.0.1, SVG Export Plug-In . SVG Version: 6.00 Build 0)  -->
<svg version="1.1" id="Camada_2" xmlns="http://www.w3.org/2000/svg" xmlns:xlink="http://www.w3.org/1999/xlink" x="0px" y="0px"
	 viewBox="0 0 595.28 315.87" style="enable-background:new 0 0 595.28 315.87;" xml:space="preserve">
<style type="text/css">
	.st0{fill:#F7941E;}
	.st1{fill:#ED1C2A;}
	.st2{fill:#A72C32;}
</style>
<g>
	<path class="st0" d="M360.4,45.14c-1.6-0.97-3.34-1.63-5.13-2c-1.01-0.18-2.05-0.28-3.11-0.28c-2.79,0-5.43,0.67-7.73,1.85
		c-0.01,0-0.01,0.01-0.01,0.01c-0.33,0.16-0.66,0.35-0.97,0.53c-0.1,0.06-0.19,0.12-0.28,0.18c-0.52,0.32-1.03,0.68-1.5,1.05
		c-0.43,0.35-0.85,0.73-1.25,1.13l-0.68,0.69l-12.36,12.35c0.13,0.06,0.26,0.12,0.38,0.19l-0.09,0.09
		c-6.28-3.03-13.33-4.74-20.77-4.74c-26.35,0-47.72,21.36-47.72,47.71c0-9.09-7.24-16.46-16.19-16.46c-8.81,0-16,7.18-16.17,16.11
		c0.18-44.07,35.96-79.74,80.08-79.74c16.44,0,31.72,4.95,44.44,13.45c0.01,0.01,0.03,0.02,0.04,0.03c2.47,1.65,4.75,3.58,6.85,5.68
		L360.4,45.14z"/>
	<path class="st1" d="M368.24,147.18c0.05,0.37,0.08,0.74,0.11,1.11c0.29,4.55-1.55,9-4.78,12.22c-1.03,1.03-2.1,2.04-3.19,3.01
		c-14.17,12.73-32.92,20.47-53.46,20.47c-43.94,0-79.61-35.38-80.08-79.21c0.46,8.68,7.52,15.58,16.17,15.58
		c8.95,0,16.19-7.37,16.19-16.47c0,26.36,21.37,47.72,47.72,47.72c12.35,0,23.6-4.69,32.08-12.39c0.01,0,0.01-0.01,0.01-0.01
		c0.56-0.51,1.1-1.03,1.64-1.56c1.69-1.68,3.69-3.05,5.94-3.83c2.27-0.78,4.76-1.08,7.36-0.77
		C361.31,133.93,367.29,139.83,368.24,147.18z"/>
	<path class="st2" d="M259.2,103.89c0,9.1-7.24,16.47-16.19,16.47c-8.65,0-15.71-6.9-16.17-15.58c-0.01-0.3-0.01-0.59-0.01-0.89
		c0-0.12,0-0.23,0.01-0.35c0.17-8.93,7.36-16.11,16.17-16.11C251.96,87.43,259.2,94.8,259.2,103.89z"/>
	<path class="st1" d="M318.45,115.84l45.35-45.35c6.2-6.2,6.2-16.25,0-22.45l-0.61-0.61c-6.2-6.2-16.25-6.2-22.45,0l-45.35,45.35
		c-6.2,6.2-6.2,16.25,0,22.45l0.61,0.61C302.2,122.04,312.25,122.04,318.45,115.84z"/>
	<path class="st2" d="M368.36,59.18c0,2.19-0.44,4.4-1.32,6.44c0,0.01-0.01,0.02-0.02,0.04c-2.67,5.3-8.32,8.95-14.86,8.95
		c-3.85,0-7.42-1.27-10.22-3.42c-0.94-1-1.92-1.98-2.95-2.89c-3.35-3.01-7.13-5.53-11.23-7.46c-0.12-0.07-0.25-0.13-0.38-0.19
		l12.36-12.35l0.68-0.69c0.4-0.4,0.82-0.78,1.25-1.13c0.47-0.37,0.98-0.73,1.5-1.05c0.09-0.06,0.18-0.12,0.28-0.18
		c0.31-0.18,0.64-0.37,0.97-0.53c0,0,0-0.01,0.01-0.01c2.3-1.18,4.94-1.85,7.73-1.85c1.06,0,2.1,0.1,3.11,0.28
		c1.79,0.37,3.53,1.03,5.13,2c1.06,0.62,2.06,1.39,2.98,2.28l0.18,0.19l0.59,0.61c0.72,0.8,1.35,1.65,1.88,2.55
		C367.58,53.35,368.36,56.27,368.36,59.18z"/>
</g>
<g>
	<path d="M212.13,231.02h18.71v12.86h-18.59c2.73,7.63,10.02,13.09,18.59,13.09v13.57c-16.12,0-29.57-11.45-32.64-26.66
		c-0.43-2.14-0.66-4.36-0.66-6.63c0-2.13,0.2-4.22,0.59-6.23c2.92-15.41,16.46-27.07,32.71-27.07v13.57
		C222.12,217.52,214.73,223.17,212.13,231.02z"/>
	<polygon points="220.31,188.93 236.15,188.93 223.36,202.74 212.6,202.74 	"/>
	<polygon points="275.33,203.95 275.33,217.76 262.03,217.76 262.03,270.54 248.22,270.54 248.22,217.76 234.93,217.76 
		234.93,203.95 	"/>
	<rect x="279.92" y="203.95" width="13.81" height="66.59"/>
	<path d="M310.25,237.1c0,10.99,8.9,19.9,19.9,19.9v13.27c-18.32,0-33.17-14.85-33.17-33.17c0-18.31,14.84-33.16,33.17-33.16v13.27
		C319.15,217.22,310.25,226.12,310.25,237.1z"/>
	<path d="M364.04,203.41c-18.61,0-33.7,15.09-33.7,33.7s15.09,33.7,33.7,33.7c18.61,0,33.7-15.09,33.7-33.7
		S382.65,203.41,364.04,203.41z M364.04,257.61c-11.32,0-20.5-9.18-20.5-20.5s9.18-20.5,20.5-20.5c11.32,0,20.5,9.18,20.5,20.5
		S375.37,257.61,364.04,257.61z"/>
</g>
</svg>
