<?xml version="1.0" encoding="utf-8"?>
<!-- Generator: Adobe Illustrator 26.0.1, SVG Export Plug-In . SVG Version: 6.00 Build 0)  -->
<svg version="1.1" id="Camada_1" xmlns="http://www.w3.org/2000/svg" xmlns:xlink="http://www.w3.org/1999/xlink" x="0px" y="0px"
	 viewBox="0 0 595.28 315.87" style="enable-background:new 0 0 595.28 315.87;" xml:space="preserve">
<style type="text/css">
	.st0{fill:#F2308B;}
</style>
<g>
	<path class="st0" d="M288.23,138.6c-14.96,0-26.98-12.02-26.98-26.97c0-14.95,12.02-26.98,26.98-26.98
		c15.09,0,26.98,11.89,26.98,26.98C315.2,126.71,303.31,138.6,288.23,138.6 M336.9,90.97h-25.88V64.78
		c-6.95-3.25-14.69-5.06-22.79-5.06c-28.63,0-53.06,23.01-53.06,51.9c0,28.89,24.42,51.91,53.06,51.91
		c28.77,0,53.06-22.89,53.06-51.91C341.29,104.25,339.71,97.27,336.9,90.97"/>
	<g>
		<path d="M198.77,230.27c-11.22,0-20.23-9.01-20.23-20.23c0-11.22,9.01-20.24,20.23-20.24c11.31,0,20.23,8.92,20.23,20.24
			C219,221.36,210.08,230.27,198.77,230.27 M198.77,171.12c-21.48,0-39.79,17.26-39.79,38.93s18.31,38.93,39.79,38.93
			c21.58,0,39.79-17.17,39.79-38.93C238.56,188.28,220.35,171.12,198.77,171.12"/>
		<path d="M378.04,230.27c-11.22,0-20.23-9.01-20.23-20.23c0-11.22,9.01-20.24,20.23-20.24c11.32,0,20.24,8.92,20.24,20.24
			C398.27,221.36,389.35,230.27,378.04,230.27 M378.04,171.12c-21.48,0-39.79,17.26-39.79,38.93s18.31,38.93,39.79,38.93
			c21.58,0,39.79-17.17,39.79-38.93C417.83,188.28,399.62,171.12,378.04,171.12"/>
		<path d="M454.58,249.21c-4.24,0-8.05-0.45-11.44-1.34c-3.39-0.89-6.36-2.01-8.92-3.35c-2.57-1.34-4.76-2.85-6.58-4.52
			c-1.83-1.67-3.33-3.29-4.52-4.85l14.73-11.04c1.86,2.31,4.01,4.26,6.47,5.86c2.46,1.6,5.57,2.39,9.37,2.39
			c3.05,0,5.41-0.46,7.08-1.39c1.67-0.93,2.51-2.47,2.51-4.63c0-1.63-0.62-2.92-1.84-3.85c-1.23-0.93-3.11-1.8-5.64-2.62l-8.92-3.01
			c-2.75-0.89-5.28-2.01-7.59-3.35c-2.31-1.34-4.29-2.94-5.97-4.8c-1.67-1.86-2.97-4-3.9-6.41c-0.93-2.42-1.39-5.19-1.39-8.31
			c0-3.71,0.71-6.99,2.12-9.82c1.41-2.83,3.33-5.19,5.75-7.08c2.42-1.89,5.19-3.33,8.31-4.3c3.13-0.96,6.36-1.45,9.71-1.45
			c3.34,0,6.34,0.28,8.98,0.84c2.64,0.56,4.96,1.3,6.97,2.23c2.01,0.93,3.78,1.99,5.3,3.18c1.52,1.19,2.85,2.46,3.96,3.79
			l-11.6,12.16c-1.56-1.63-3.28-2.95-5.13-3.96c-1.86-1-4.32-1.51-7.36-1.51c-2.45,0-4.29,0.5-5.52,1.51
			c-1.23,1.01-1.84,2.25-1.84,3.74c0,1.49,0.43,2.64,1.28,3.46c0.85,0.82,2.21,1.53,4.07,2.12l10.04,3.34
			c3.79,1.27,6.99,2.66,9.59,4.19c2.6,1.52,4.69,3.23,6.25,5.13c1.56,1.89,2.7,3.97,3.4,6.24c0.71,2.27,1.06,4.74,1.06,7.42
			c0,3.5-0.56,6.71-1.67,9.65c-1.12,2.94-2.84,5.47-5.19,7.59c-2.34,2.12-5.33,3.78-8.98,4.96
			C463.87,248.61,459.56,249.21,454.58,249.21"/>
		<path d="M122.35,248.98c-4.24,0-8.05-0.44-11.44-1.34c-3.39-0.89-6.36-2.01-8.93-3.35c-2.57-1.33-4.76-2.85-6.58-4.52
			c-1.82-1.67-3.33-3.29-4.52-4.85l14.73-11.04c1.86,2.31,4.01,4.26,6.47,5.86c2.45,1.6,5.57,2.39,9.37,2.39
			c3.05,0,5.41-0.46,7.08-1.39c1.67-0.93,2.51-2.47,2.51-4.63c0-1.63-0.62-2.92-1.84-3.85c-1.23-0.93-3.11-1.8-5.64-2.62l-8.93-3.01
			c-2.75-0.89-5.28-2.01-7.58-3.34c-2.31-1.34-4.29-2.94-5.97-4.8c-1.67-1.86-2.97-4-3.9-6.41c-0.93-2.42-1.39-5.19-1.39-8.31
			c0-3.71,0.71-6.99,2.12-9.82c1.41-2.83,3.33-5.19,5.75-7.08c2.42-1.89,5.19-3.33,8.31-4.29c3.13-0.96,6.36-1.45,9.71-1.45
			c3.34,0,6.34,0.28,8.98,0.84c2.64,0.56,4.96,1.3,6.97,2.23c2.01,0.93,3.78,1.99,5.3,3.18c1.52,1.19,2.85,2.46,3.96,3.8
			l-11.6,12.16c-1.56-1.64-3.28-2.96-5.14-3.96c-1.86-1-4.31-1.5-7.36-1.5c-2.45,0-4.29,0.5-5.52,1.5
			c-1.22,1.01-1.84,2.25-1.84,3.74c0,1.49,0.43,2.64,1.28,3.46c0.85,0.82,2.21,1.52,4.07,2.12l10.04,3.35
			c3.79,1.27,6.99,2.66,9.59,4.18c2.6,1.52,4.69,3.23,6.25,5.13c1.56,1.89,2.7,3.98,3.4,6.24c0.71,2.27,1.06,4.74,1.06,7.42
			c0,3.5-0.56,6.71-1.67,9.65c-1.12,2.94-2.84,5.47-5.19,7.59c-2.34,2.12-5.33,3.78-8.98,4.96
			C131.64,248.38,127.33,248.98,122.35,248.98"/>
		<path d="M288.23,209.76c0,0-37.83-37.97-37.9-37.27v74.63h18.57v-29.5l19.32,18.92l19.32-18.92v29.5h18.57v-74.63
			C326.06,171.79,288.23,209.76,288.23,209.76"/>
		<path d="M352.08,268.28h-3.46v11.93h3.46c3.68,0,6.09-2.48,6.09-5.94S355.77,268.28,352.08,268.28 M352.08,283.03h-6.54v-17.55
			h6.54c5.52,0,9.33,3.79,9.33,8.75C361.41,279.19,357.6,283.03,352.08,283.03"/>
		<path d="M381.01,275.43c0,5.24-2.96,7.87-7.54,7.87c-4.57,0-7.47-2.63-7.47-7.72v-10.1h3.08v9.98c0,3.26,1.68,5.02,4.44,5.02
			c2.73,0,4.41-1.65,4.41-4.89v-10.1h3.08V275.43z"/>
		<path d="M394.64,283.33c-5.11,0-8.93-3.99-8.93-9.05c0-5.01,3.74-9.1,9.05-9.1c3.23,0,5.19,1.13,6.87,2.73l-1.98,2.28
			c-1.4-1.3-2.91-2.18-4.92-2.18c-3.36,0-5.79,2.75-5.79,6.22c0,3.46,2.43,6.27,5.79,6.27c2.16,0,3.54-0.88,5.04-2.28l1.98,2.01
			C399.94,282.12,397.93,283.33,394.64,283.33"/>
		<polygon points="339.19,268.23 329.26,268.23 329.26,272.8 338.06,272.8 338.06,275.56 329.26,275.56 329.26,280.27 
			339.31,280.27 339.31,283.03 326.18,283.03 326.18,265.48 339.19,265.48 		"/>
		<path d="M413.61,269.04l-3.01,7.02h6.04L413.61,269.04z M422.81,283.03h-3.26l-1.78-4.24h-8.3l-1.81,4.24h-3.16l7.72-17.67h2.86
			L422.81,283.03z"/>
		<path d="M425.31,274.4c0-5.02,3.74-9.1,9.05-9.1c3.23,0,5.19,1.13,6.87,2.73l-1.98,2.28c-1.41-1.3-2.91-2.18-4.91-2.18
			c-3.37,0-5.79,2.76-5.79,6.22c0,3.46,2.43,6.27,5.79,6.27c2.15,0,3.53-0.88,5.04-2.28l1.98,2c-1.7,1.78-3.58,2.96-6.57,3.08
			l-1.66,3.86l-2.63-1.11l1.98-2.91C428.27,282.5,425.31,278.87,425.31,274.4"/>
		<path d="M453.67,269.04l-3.01,7.02h6.04L453.67,269.04z M455.66,264.02c-1.38,0-2.71-1-3.61-1c-0.73,0-1,0.4-1.38,1.26l-1.68-0.5
			c0.55-2.03,1.28-3.13,2.81-3.13c1.38,0,2.71,1,3.61,1c0.73,0,1-0.4,1.38-1.26l1.68,0.53
			C457.92,262.92,457.19,264.02,455.66,264.02 M462.88,283.03h-3.26l-1.78-4.24h-8.3l-1.81,4.24h-3.16l7.72-17.67h2.86
			L462.88,283.03z"/>
		<path d="M474.16,268.01c-3.49,0-5.91,2.78-5.91,6.22c0,3.44,2.48,6.27,5.97,6.27c3.49,0,5.92-2.78,5.92-6.22
			C480.13,270.84,477.64,268.01,474.16,268.01 M474.16,283.33c-5.39,0-9.15-4.09-9.15-9.05c0-4.96,3.81-9.1,9.2-9.1
			c5.39,0,9.15,4.09,9.15,9.05S479.55,283.33,474.16,283.33"/>
	</g>
</g>
</svg>
