<?xml version="1.0" encoding="utf-8"?>
<!-- Generator: Adobe Illustrator 26.0.1, SVG Export Plug-In . SVG Version: 6.00 Build 0)  -->
<svg version="1.1" id="Layer_1" xmlns="http://www.w3.org/2000/svg" xmlns:xlink="http://www.w3.org/1999/xlink" x="0px" y="0px"
	 viewBox="0 0 664.26 622.45" style="enable-background:new 0 0 664.26 622.45;" xml:space="preserve">
<style type="text/css">
	.st0{fill-rule:evenodd;clip-rule:evenodd;fill:#FFFFFF;}
</style>
<g>
	<g>
		<path class="st0" d="M324.28,336.41c-11.93-0.09-23.58-11.39-23.65-22.98c-0.07-10.53,13.55-23.56,24.41-23.35
			c13.02,0.25,23.81,11.01,23.68,23.63C348.59,326.38,337.69,336.51,324.28,336.41L324.28,336.41z M324.29,326.45
			c7.88,0.04,14.24-3.93,16.38-10.99c2.41-7.97-2.33-15.48-15.78-15.48c-5.86,0-16.26,5.77-16.41,11.37
			c0.03,3.47,1.9,10.55,4.98,13.19C315.86,326.59,321.55,326.32,324.29,326.45L324.29,326.45z M553.66,327.41
			c-1.44-12.72-0.92-26.56-4.8-39.15c-16.77-54.31-39.69-105.06-83.8-145.52c-25.62-23.5-52.77-41.39-87.61-47.72
			c-23.79-4.32-47.88-9.12-71.7-2.46c-16.28,4.56-31.64,12.17-47.45,18.32c-39.48,15.34-75.81,34.95-104.66,66.26
			c-18.32,19.89-35.73,39.9-43.76,65.97c-9.49,30.82-17.04,62.23-7.92,93.98c9.2,31.98,22.9,62.62,41.92,90.46
			c18.82,27.54,43.72,50.01,69.77,71.08c8.4,6.79,18.66,11.74,28.66,16.38c43.82,20.33,89.34,27.85,137.44,16.53
			c24.66-5.81,48.75-12.47,65.78-32.14c21.93-25.38,45.76-48.86,71.42-70.73c15.66-13.34,25.52-30.4,29.16-50.27
			C549.15,361.79,551.11,344.99,553.66,327.41L553.66,327.41z M559.95,323.82c-2.01,16.9-3.39,33.73-6.11,50.36
			c-4.45,27.07-18.68,49.04-40.18,66.71c-20.11,16.54-38.93,34.3-55.12,54.49c-21.82,27.23-52.61,37.57-86,43.77
			c-40.39,7.51-78.92,2.89-117.17-11.7c-28.3-10.8-52.29-26.41-73.24-47.34c-19.56-19.54-40.39-38.24-52.81-63.01
			c-11.82-23.59-23.33-47.55-32-72.31c-11.91-34.01-4.21-68,5.65-101.41c8.84-29.97,28.6-52.92,50.29-75.06
			c25.17-25.68,54.74-44.41,88.58-57.39c8.43-3.23,16.73-6.91,24.67-11.08c32.75-17.21,67.21-19.08,103.24-12.76
			c39.94,7.01,72.34,24.84,101.61,52.52c44.37,41.95,67.96,93.55,84.55,149.27C559.2,299.97,558.69,312.11,559.95,323.82
			L559.95,323.82z M347.63,120.75c-20.74-0.32-41.58-0.48-61.45,6.17c-26.12,8.75-50.78,26.37-76.62,35.86
			c-13.84,5.07-24.81,14.1-33.43,25.69c-19.89,26.74-33.2,56.36-40.91,88.35c-7.24,30.09-4.83,59.39,7.6,87.97
			c6.33,14.55,12.72,29.11,17.92,44.04c9.18,26.39,25.83,46.85,49.74,62.12c23.3,14.88,46.94,27.69,76.62,26.57
			c28.08-1.05,56.26-0.23,84.39,0.37c22.67,0.48,42.08-6.14,57.96-21.93c21.43-21.31,42.95-42.55,64.32-63.91
			c12.2-12.19,19.93-26.74,22.8-43.44c1.45-8.45,2.07-17.05,2.77-25.6c3.42-41.98-4.54-81.63-25.26-118.98
			c-14.13-25.47-35.42-44.87-56.18-64.87c-21.45-20.66-48.56-38.77-78.71-38.41C355.34,120.79,351.49,120.75,347.63,120.75
			L347.63,120.75z M342.54,113.22c11.77,0.62,23.55,0.93,35.28,1.95c15.01,1.31,30.7,13.46,42.89,22.05
			c31.26,22.04,58.47,48,78.06,80.55c24.54,40.76,31.05,84.98,27.82,131.49c-2.24,32.22-15.07,58.32-39.71,80.06
			c-15.96,14.08-30.89,29.36-45.29,44.95c-21.6,23.38-48.12,32.82-80.21,30.61c-18.99-1.3-38.35-2.68-57.16-0.71
			c-40.12,4.21-73.3-9.58-104.28-32c-20.36-14.74-35.5-32.87-44.19-56.13c-6.31-16.87-13.28-33.52-20.43-50.09
			c-13.87-32.17-14.47-64.98-5.52-98.24c6.91-25.7,18.14-49.66,32.32-72.36c12.73-20.38,30.27-35.08,53.77-43.09
			c18.86-6.42,36.34-21.43,55.08-28.19C294.08,115.74,317.95,112.59,342.54,113.22L342.54,113.22z M494.17,312.77
			c-1.34,13.22-2.3,28.88-4.66,44.34c-4.16,27.47-17.5,50.5-39.41,68.48c-32.95,27.02-69.45,47.36-113.85,49.21
			c-14.18,0.58-29.26-0.83-42.67-5.04c-35.4-11.12-68.48-27.88-93.08-55.18c-77.77-86.27-39.66-180.36,24.26-228
			c35.2-26.23,75.43-39.42,120.39-33.69c14.17,1.8,28.42,5.76,41.66,11c27.4,10.84,52.26,26.09,73.91,45.78
			c18.2,16.55,27.15,37.57,30.02,61.1C492.34,283.88,492.92,297.11,494.17,312.77L494.17,312.77z M486,313.61
			c-0.89-14.02-1.27-25.43-2.41-36.75c-2.33-23.3-9.77-44.61-27.88-61.23c-24.94-22.87-54.03-39.34-86.52-49.89
			c-10.35-3.35-21.49-5.43-32.39-6.05c-45.87-2.66-86.01,12.3-118.71,42.43c-65.91,60.71-73.8,147.78-2.95,215.59
			c21.29,20.37,48.14,34.02,76.52,43.46c12.59,4.19,26.61,6.32,39.95,6.17c41.5-0.43,75.92-18.73,107.63-42.81
			c24.36-18.51,39.16-42.38,43.16-72.07C484.23,338.73,484.98,324.87,486,313.61L486,313.61z M328.22,207.25
			c-21.47-1.06-53.42,7.7-72.34,23.2c-21.46,17.56-40.64,46.99-37.72,80.31c1.85,21.05,6.04,42.93,14.05,56.7
			c16.4,28.21,51.79,46.21,93.84,49.73c50.72,4.24,111.53-43.7,106.45-99.54c-3.67-40.4-15.25-74.7-53.27-91.9
			C363.64,218.69,347.27,208.29,328.22,207.25L328.22,207.25z M210.22,307.54c-2.04-27.14,13.78-53.24,33.37-72.84
			c28.99-29.01,71.38-43.82,118.16-26.75c36.4,13.28,59.93,35.45,72.59,70.59c16.76,46.51,2.83,93.05-40.35,123.93
			c-32.99,23.6-69.01,31.2-108.04,13.73c-0.23-0.1-0.46-0.2-0.69-0.27C228.39,399.78,210.21,349.84,210.22,307.54L210.22,307.54z
			 M319.93,252.59c-8.06,2.25-17.07,3.42-24.77,7.13c-24.85,11.99-35.3,34.83-28.58,63.05c2.42,10.23,6.82,20.36,12.13,29.54
			c4.89,8.43,40.7,21.2,50.82,20.15c19.08-1.99,33.64-11.45,45.18-25.5c12.38-15.07,15.28-31.8,7.46-49.87
			c-14.53-33.56-12.43-27.8-42.14-39.36C333.98,255.38,327.34,254.44,319.93,252.59L319.93,252.59z M259.03,308.5
			c-1.11-41.64,41.79-71.22,80.45-57.52c7.06,2.5,14.27,4.79,20.96,8.05c5.05,2.46,10.93,5.35,13.76,9.68
			c12.11,18.57,22.52,37.7,16.57,61.21c-6.59,26.07-40.56,50.93-68.25,48.84c-3.48-0.26-7.03-1.19-10.26-2.46
			c-9-3.56-17.87-7.43-26.76-11.25c-8.3-3.57-13.9-9.53-17.19-17.74C263.02,334.12,257.41,321.04,259.03,308.5L259.03,308.5z
			 M327.43,56.05c-5.61,0-11.07,0.49-16.25,1.47c-67.29,12.65-117.62,43.58-160.87,79.71c-18.08,15.1-42.67,31.82-50.33,56.54
			c-1.2,3.86-2.34,7.73-3.49,11.61c-1.91,6.46-3.89,13.14-6.09,19.71c-12.33,36.71-14.47,85.49-16.6,124.37l-0.74,13.75
			c-2.38,44.56,59.13,101.7,85.74,129.35c12.18,12.67,30.14,36.93,41.62,42.42c3.86,1.85,7.26-0.04,11.8,1.43
			c11.11,3.61,22.26,7.12,33.41,10.62l9.63,3.03c28.31,8.93,54.19,13.27,79.13,13.27c8.11,0,16.26-0.47,24.2-1.41
			c72.7-8.54,133.3-34.17,168.66-83.55l3.63-12.17c22.53-29.16,32.56-55.33,40.36-80.96c6.92-22.76,6.92-46.11,6.93-70.82l0.02-7.33
			c0.01-3.78,0.03-7.57-0.03-11.36c-0.33-18.13-1.14-37.39-7.01-55.92c-10.86-34.29-32.69-53.06-56.01-81.77
			c-17.91-22.05-40.4-49.37-66.85-61.77c-25-11.72-52.74-23.72-88.87-32.15C349.39,61.78,336.16,56.05,327.43,56.05L327.43,56.05z
			 M331.09,578C331.08,578,331.08,578,331.09,578c-26.62,0-54.07-4.58-83.9-13.98l-9.49-2.99c-12.65-3.97-25.3-7.95-37.9-12.08
			c-23.18-7.61-33.87-35.71-50.87-53.38c-34.05-35.4-66.12-53.47-80.13-89.69c-6.07-15.7-8.62-30.83-7.8-46.25l0.74-13.6
			c0.89-16.27,1.81-33.09,2.42-49.6c0.85-23.18,5.65-47.06,15.08-75.14c2.07-6.18,3.98-12.62,5.82-18.84
			c1.15-3.89,2.3-7.79,3.51-11.67c8.95-28.89,29.6-49.03,48.63-64.91c45.22-37.76,101.08-62.5,170.77-75.6
			c15.72-2.95,32.61-2.26,51.5,2.16c36.99,8.63,66.28,18.3,92.18,30.44c28.69,13.45,50.4,47.95,69.84,71.88
			c24.13,29.73,49.45,43.91,61.11,80.71c6.5,20.52,7.4,41.8,7.73,60.14c0.06,3.87,0.05,7.74,0.03,11.6l-0.02,7.15
			c0,24.59-0.01,50.02-7.6,74.96c-8.34,27.41-23.2,54.4-46.79,84.93c-2.44,3.16-4.8,6.39-7.13,9.64
			c-38.11,53.21-94.24,83.5-171.6,92.59C348.64,577.49,339.85,578,331.09,578L331.09,578z"/>
	</g>
</g>
</svg>
