<svg xmlns="http://www.w3.org/2000/svg" width="729.372" height="1458.9" viewBox="0 0 729.372 1458.9">
  <defs>
    <style>
      .cls-1 {
        opacity: 0.5;
      }

      .cls-2 {
        fill: #ffe434;
      }

      .cls-2, .cls-3 {
        fill-rule: evenodd;
      }

      .cls-3 {
        fill: #5b4f34;
      }
    </style>
  </defs>
  <g id="Logo_Pela_metade" data-name="Logo Pela metade" class="cls-1" transform="translate(-919.2 -18.473)">
    <g id="Grupo_785" data-name="Grupo 785" transform="translate(919.2 18.473)">
      <path id="Caminho_10376" data-name="Caminho 10376" class="cls-2" d="M1613.646,694.985h0v.821c-.164,3.938-.328,7.713-.656,11.651q-.246,3.446-.493,6.892-.246,2.708-.492,5.415a3.2,3.2,0,0,1-.164,1.313c-.164,1.313-.164,2.79-.328,4.1-.164.985-.164,1.969-.328,2.954-.164,1.477-.328,2.79-.492,4.266-.493,4.923-1.149,9.682-1.641,14.441-.328,1.969-.492,3.938-.82,5.907a.6.6,0,0,1-.164.492c-.164,1.149-.328,2.133-.492,3.282s-.328,2.462-.493,3.61c-.164.984-.328,2.133-.492,3.118a47.01,47.01,0,0,0-.821,5.087c-.328,1.969-.656,3.939-1.149,5.908-.656,3.61-1.477,7.22-2.3,10.667l-.492,2.461a28.546,28.546,0,0,0-.82,3.61c-.164.656-.328,1.149-.492,1.805a44.044,44.044,0,0,1-1.149,4.431l-.493,1.969a45.287,45.287,0,0,1-1.313,4.431c0,.164-.164.492-.164.656-.492,1.805-.984,3.61-1.641,5.415-21.5,70.563-49.066,142.768-111.1,223.013l-10.01,33.477c-97.476,136.04-264.366,206.6-464.733,230.233a560.772,560.772,0,0,1-66.625,3.938c-7.877,0-15.918-.164-23.795-.492V231.4c45.128,3.282,85,20.348,133.742,26.256,59.733,7.22,121.6,24.779,191.177,56.615,15.754,7.22,32,15.1,48.574,23.959l11.979,1.313,22.81,2.626a445.385,445.385,0,0,1,62.358,36.43,455.314,455.314,0,0,1,36.266,28.061c38.071,32.492,71.712,71.384,101.25,115.527,11.323,16.9,21.826,34.461,32,52.84C1580.006,612.278,1597.893,652.483,1613.646,694.985Z" transform="translate(-919.007 118.015)"/>
      <path id="Caminho_10377" data-name="Caminho 10377" class="cls-3" d="M1648.464,699.371c-.984-50.543-3.446-109.127-21.333-165.742-32.164-101.414-101.907-140.47-168.368-222.356-53.5-65.969-113.393-160.983-192.49-198.07-71.384-33.477-152.122-60.061-254.028-83.855-32.984-7.713-63.671-11.323-92.881-10.831V39.358h4.595c23.959,0,60.553,15.754,88.122,22.154,99.445,23.3,175.916,56.287,244.839,88.614,72.86,34.133,134.89,109.455,184.121,170.173,64.163,79.1,124.389,130.788,154.255,225.31,16.082,51.035,18.379,104.04,19.364,154.091.164,10.5.164,20.841,0,31.343v20.184c0,27.4,0,54.153-1.313,80.409v.82c-.164,3.938-.328,7.713-.657,11.651q-.246,3.446-.492,6.892-.246,2.708-.492,5.415a3.2,3.2,0,0,1-.164,1.313c-.164,1.313-.164,2.79-.328,4.1-.164.985-.164,1.969-.328,2.954-.164,1.477-.328,2.79-.493,4.267-.492,4.923-1.149,9.682-1.641,14.441-.328,1.969-.492,3.938-.82,5.908a.6.6,0,0,1-.164.492c-.164,1.149-.328,2.133-.492,3.282s-.328,2.462-.492,3.61c-.164.985-.328,2.133-.492,3.118a47.018,47.018,0,0,0-.82,5.087c-.328,1.969-.657,3.938-1.149,5.908-.656,3.61-1.477,7.22-2.3,10.667l-.492,2.462a28.563,28.563,0,0,0-.821,3.61c-.164.656-.328,1.149-.493,1.8a43.964,43.964,0,0,1-1.149,4.431q-.246.985-.492,1.969a45.2,45.2,0,0,1-1.313,4.431c0,.164-.164.492-.164.657-.492,1.805-.984,3.61-1.641,5.415-21.5,70.563-49.066,142.768-111.1,223.013l-10.01,33.477c-97.476,136.04-264.366,206.6-464.733,230.234A560.8,560.8,0,0,1,942.995,1437c-7.877,0-15.918-.164-23.795-.492v40.7c4.923.164,9.846.164,14.769.164h0a655.567,655.567,0,0,0,72.04-4.1c213.167-25.107,367.75-108.471,472.774-255.013q9.6-13.538,19.692-26.584c64.984-84.184,105.845-158.521,128.819-234.008,21-68.758,21-138.665,21-206.439V731.535C1648.628,720.7,1648.628,710.038,1648.464,699.371Zm-599.952,671.008c92.06-17.066,176.736-45.62,236.962-120.614,44.635-55.63,96.491-104.532,151.793-150.152,59.24-48.738,98.461-109.127,110.6-183.793,7.548-45.784,11.323-92.225,16.9-138.665-2.3-21.825-2.462-43.979-5.087-65.64a191.6,191.6,0,0,0-6.072-30.687c-45.62-153.6-110.6-295.71-232.859-411.236-80.573-76.307-169.844-125.373-279.956-144.737-41.189-7.22-81.558-10.5-121.271-8.7V131.09c47.589-2.3,95.178,6.892,142.44,15.425,96,17.395,170.829,66.789,241.392,131.445C1419.379,384.3,1482.066,516.4,1527.686,658.346c2.133,6.892,4.431,13.62,6.4,20.513,10.666,34.625,9.354,72.861,13.292,107.814-7.056,48.41-12.472,94.686-20.841,140.47-10.01,54.81-37.25,101.742-80.409,138.5a1807.954,1807.954,0,0,0-196.757,194.788c-46.933,54.153-113.229,72.532-181.167,88.615a539.066,539.066,0,0,1-148.839,13.948v16.246A555.82,555.82,0,0,0,1048.511,1370.379Zm190.193-178.87c39.712-42.994,80.738-85,124.717-123.9,67.938-59.9,103.22-131.773,109.455-220.551,7.384-106.337-3.775-208.244-46.276-304.079a532.966,532.966,0,0,0-30.359-58.256c-53.989-89.763-128.983-161.147-215.136-221.864-33.641-23.631-76.8-57.107-118.153-60.717-32.328-2.79-64.82-3.61-97.148-5.415-15.59-.328-30.851-.164-46.276.492v20.348c20.02-.656,40.2-.328,60.225,0,10.667,0,21.333.164,31.836,0,83.035-.985,157.7,48.9,216.941,105.845,57.271,55.138,115.855,108.471,154.747,178.706,2.3,4.267,4.759,8.533,6.892,12.8,51.856,99.117,71.712,203.977,62.686,314.909-1.969,23.631-3.61,47.261-7.713,70.563-7.877,45.948-29.21,86.153-62.851,119.63-58.912,58.912-118.153,117.332-177.229,176.08-43.815,43.487-97.148,61.7-159.67,60.389-42.01-.821-84.019-1.969-126.029-2.3v16.9c32.656.164,65.64,2.462,98.132,4.595C1106.275,1281.929,1179.3,1256,1238.7,1191.509Zm-290.13,1.477c122.255-5.087,222.849-61.045,313.6-135.547,60.389-49.558,97.147-112.9,108.634-188.716,6.564-42.666,9.19-85.661,12.8-122.091-3.446-43.158-5.087-79.589-9.518-115.691-7.221-58.584-28.061-111.589-68.922-154.911-4.431-4.595-8.862-9.026-13.785-13.456-59.733-54.317-128.163-96.327-203.649-126.193-36.43-14.441-75.814-25.272-114.706-30.359a457.713,457.713,0,0,0-53.5-3.61v21.5c10.01,0,20.184.164,30.359.821a351.641,351.641,0,0,1,89.271,16.738c75.486,24.451,144.409,60.717,205.29,109.127,11.323,9.026,22.318,18.379,32.984,28.225,49.887,45.784,70.4,104.532,76.8,168.7,3.118,31.179,4.1,62.687,6.564,101.25-2.79,31.015-4.923,69.251-10.01,106.994-10.995,81.722-51.856,147.527-118.973,198.562-87.3,66.3-182.152,116.84-296.53,117.988-5.251,0-10.667,0-16.082-.164v20.841A292.276,292.276,0,0,0,948.574,1192.986Zm159.014-199.218c118.974-85.168,157.373-213.331,111.261-341.494-34.789-96.819-99.774-157.865-200.039-194.459-34.133-12.472-67.281-18.707-99.117-19.692v17.723c2.3,0,4.595.164,6.728.164,52.512,2.954,97.64,31.507,140.47,50.871,104.7,47.425,136.7,141.947,146.706,253.208,13.948,153.762-153.6,285.864-293.248,274.212h-.82v23.63C985.825,1059.737,1048.511,1036.106,1107.588,993.768Zm-8.861-199.875c16.41-64.82-12.308-117.5-45.62-168.7-7.877-11.979-23.959-19.856-37.907-26.584-18.379-9.026-38.235-15.261-57.763-22.154a162.753,162.753,0,0,0-37.743-8.533V584.5c14.113,3.118,27.077,5.744,39.384,10.5,81.886,31.836,75.978,15.918,116.019,108.471,21.5,49.723,13.62,95.835-20.512,137.352-31.836,38.728-71.876,64.82-124.388,70.235a55.588,55.588,0,0,1-10.338-.164v17.887C994.03,928.948,1081.332,862.98,1098.726,793.893ZM982.871,749.258c.328-34.133-28.225-63.343-63.343-64.984v27.241c35.281.82,47.589,21.169,41.189,42.666-5.579,18.215-21.333,29.046-41.189,30.195v27.4C954.646,809.975,982.543,782.9,982.871,749.258Zm576.814-37.743a191.616,191.616,0,0,0-6.072-30.687c-45.62-153.6-110.6-295.71-232.859-411.236-80.573-76.307-169.844-125.373-279.956-144.737-41.189-7.22-81.558-10.5-121.27-8.7V131.09c47.589-2.3,95.178,6.892,142.439,15.425,96,17.395,170.829,66.789,241.392,131.445C1419.379,384.3,1482.066,516.4,1527.686,658.346c2.133,6.892,4.43,13.62,6.4,20.513,10.667,34.625,9.354,72.861,13.292,107.814-7.056,48.41-12.472,94.686-20.841,140.47-10.01,54.81-37.251,101.742-80.409,138.5a1807.961,1807.961,0,0,0-196.757,194.788c-46.933,54.153-113.229,72.532-181.167,88.615a539.066,539.066,0,0,1-148.839,13.948v16.246a573.266,573.266,0,0,0,128.819-9.19c92.061-17.067,176.737-45.62,236.962-120.614,44.635-55.63,96.491-104.532,151.793-150.152,59.24-48.738,98.461-109.127,110.6-183.793,7.549-45.784,11.323-92.225,16.9-138.665C1562.475,755.33,1562.311,733.012,1559.685,711.515ZM1238.7,1191.509c39.712-42.994,80.738-85,124.717-123.9,67.938-59.9,103.22-131.773,109.455-220.551,7.384-106.337-3.775-208.244-46.276-304.079a532.966,532.966,0,0,0-30.359-58.256c-53.989-89.763-128.983-161.147-215.136-221.864-33.641-23.631-76.8-57.107-118.153-60.717-32.328-2.79-64.82-3.61-97.148-5.415-15.59-.328-30.851-.164-46.276.492v20.348c20.02-.656,40.2-.328,60.225,0,10.667,0,21.333.164,31.836,0,83.035-.985,157.7,48.9,216.941,105.845,57.271,55.138,115.855,108.471,154.747,178.706,2.3,4.267,4.759,8.533,6.892,12.8,51.856,99.117,71.712,203.977,62.686,314.909-1.969,23.631-3.61,47.261-7.713,70.563-7.877,45.948-29.21,86.153-62.851,119.63-58.912,58.912-118.153,117.332-177.229,176.08-43.815,43.487-97.148,61.7-159.67,60.389-42.01-.821-84.019-1.969-126.029-2.3v16.9c32.656.164,65.64,2.462,98.132,4.595C1106.275,1281.929,1179.3,1256,1238.7,1191.509Zm-290.13,1.477c122.255-5.087,222.849-61.045,313.6-135.547,60.389-49.558,97.147-112.9,108.634-188.716,6.564-42.666,9.19-85.661,12.8-122.091-3.446-43.158-5.087-79.589-9.518-115.691-7.221-58.584-28.061-111.589-68.922-154.911-4.431-4.595-8.862-9.026-13.785-13.456-59.733-54.317-128.163-96.327-203.649-126.193-36.43-14.441-75.814-25.272-114.706-30.359a457.713,457.713,0,0,0-53.5-3.61v21.5c10.01,0,20.184.164,30.359.821a351.641,351.641,0,0,1,89.271,16.738c75.486,24.451,144.409,60.717,205.29,109.127,11.323,9.026,22.318,18.379,32.984,28.225,49.887,45.784,70.4,104.532,76.8,168.7,3.118,31.179,4.1,62.687,6.564,101.25-2.79,31.015-4.923,69.251-10.01,106.994-10.995,81.722-51.856,147.527-118.973,198.562-87.3,66.3-182.152,116.84-296.53,117.988-5.251,0-10.667,0-16.082-.164v20.841A292.276,292.276,0,0,0,948.574,1192.986Zm159.014-199.218c118.974-85.168,157.373-213.331,111.261-341.494-34.789-96.819-99.774-157.865-200.039-194.459-34.133-12.472-67.281-18.707-99.117-19.692v17.723c2.3,0,4.595.164,6.728.164,52.512,2.954,97.64,31.507,140.47,50.871,104.7,47.425,136.7,141.947,146.706,253.208,13.948,153.762-153.6,285.864-293.248,274.212h-.82v23.63C985.825,1059.737,1048.511,1036.106,1107.588,993.768Zm-8.861-199.875c16.41-64.82-12.308-117.5-45.62-168.7-7.877-11.979-23.959-19.856-37.907-26.584-18.379-9.026-38.235-15.261-57.763-22.154a162.753,162.753,0,0,0-37.743-8.533V584.5c14.113,3.118,27.077,5.744,39.384,10.5,81.886,31.836,75.978,15.918,116.019,108.471,21.5,49.723,13.62,95.835-20.512,137.352-31.836,38.728-71.876,64.82-124.388,70.235a55.588,55.588,0,0,1-10.338-.164v17.887C994.03,928.948,1081.332,862.98,1098.726,793.893ZM982.871,749.258c.328-34.133-28.225-63.343-63.343-64.984v27.241c35.281.82,47.589,21.169,41.189,42.666-5.579,18.215-21.333,29.046-41.189,30.195v27.4C954.646,809.975,982.543,782.9,982.871,749.258Zm70.235-124.06c-7.877-11.979-23.959-19.856-37.907-26.584-18.379-9.026-38.235-15.261-57.763-22.154a162.753,162.753,0,0,0-37.743-8.533V584.5c14.113,3.118,27.077,5.744,39.384,10.5,81.886,31.836,75.978,15.918,116.019,108.471,21.5,49.723,13.62,95.835-20.512,137.352-31.836,38.728-71.876,64.82-124.388,70.235a55.588,55.588,0,0,1-10.338-.164v17.887c74.5.164,161.639-65.8,179.2-134.891C1115.136,729.074,1086.418,676.4,1053.106,625.2Zm-70.235,124.06c.328-34.133-28.225-63.343-63.343-64.984v27.241c35.281.82,47.589,21.169,41.189,42.666-5.579,18.215-21.333,29.046-41.189,30.195v27.4C954.646,809.975,982.543,782.9,982.871,749.258Zm-63.179-64.984v27.241c35.282.82,47.589,21.169,41.189,42.666-5.58,18.215-21.333,29.046-41.189,30.194v27.4c35.117-1.641,63.015-28.882,63.343-62.522C983.2,715.125,954.646,685.915,919.693,684.274Zm299.156-32c-34.789-96.819-99.774-157.865-200.039-194.459-34.133-12.472-67.281-18.707-99.117-19.692v17.723c2.3,0,4.595.164,6.728.164,52.512,2.954,97.64,31.507,140.47,50.871,104.7,47.425,136.7,141.947,146.706,253.208,13.948,153.762-153.6,285.864-293.248,274.212h-.82v23.63c66.133,1.969,128.819-21.661,187.9-64C1226.561,908.6,1264.961,780.437,1218.849,652.274ZM1098.726,793.893c16.41-64.82-12.308-117.5-45.62-168.7-7.877-11.979-23.959-19.856-37.907-26.584-18.379-9.026-38.235-15.261-57.763-22.154a162.753,162.753,0,0,0-37.743-8.533V584.5c14.113,3.118,27.077,5.744,39.384,10.5,81.886,31.836,75.978,15.918,116.019,108.471,21.5,49.723,13.62,95.835-20.512,137.352-31.836,38.728-71.876,64.82-124.388,70.235a55.588,55.588,0,0,1-10.338-.164v17.887C994.03,928.948,1081.332,862.98,1098.726,793.893ZM982.871,749.258c.328-34.133-28.225-63.343-63.343-64.984v27.241c35.281.82,47.589,21.169,41.189,42.666-5.579,18.215-21.333,29.046-41.189,30.195v27.4C954.646,809.975,982.543,782.9,982.871,749.258Zm70.235-124.06c-7.877-11.979-23.959-19.856-37.907-26.584-18.379-9.026-38.235-15.261-57.763-22.154a162.753,162.753,0,0,0-37.743-8.533V584.5c14.113,3.118,27.077,5.744,39.384,10.5,81.886,31.836,75.978,15.918,116.019,108.471,21.5,49.723,13.62,95.835-20.512,137.352-31.836,38.728-71.876,64.82-124.388,70.235a55.588,55.588,0,0,1-10.338-.164v17.887c74.5.164,161.639-65.8,179.2-134.891C1115.136,729.074,1086.418,676.4,1053.106,625.2Zm-70.235,124.06c.328-34.133-28.225-63.343-63.343-64.984v27.241c35.281.82,47.589,21.169,41.189,42.666-5.579,18.215-21.333,29.046-41.189,30.195v27.4C954.646,809.975,982.543,782.9,982.871,749.258Zm235.977-96.984c-34.789-96.819-99.774-157.865-200.039-194.459-34.133-12.472-67.281-18.707-99.117-19.692v17.723c2.3,0,4.595.164,6.728.164,52.512,2.954,97.64,31.507,140.47,50.871,104.7,47.425,136.7,141.947,146.706,253.208,13.948,153.762-153.6,285.864-293.248,274.212h-.82v23.63c66.133,1.969,128.819-21.661,187.9-64C1226.561,908.6,1264.961,780.437,1218.849,652.274ZM1098.726,793.893c16.41-64.82-12.308-117.5-45.62-168.7-7.877-11.979-23.959-19.856-37.907-26.584-18.379-9.026-38.235-15.261-57.763-22.154a162.753,162.753,0,0,0-37.743-8.533V584.5c14.113,3.118,27.077,5.744,39.384,10.5,81.886,31.836,75.978,15.918,116.019,108.471,21.5,49.723,13.62,95.835-20.512,137.352-31.836,38.728-71.876,64.82-124.388,70.235a55.588,55.588,0,0,1-10.338-.164v17.887C994.03,928.948,1081.332,862.98,1098.726,793.893ZM982.871,749.258c.328-34.133-28.225-63.343-63.343-64.984v27.241c35.281.82,47.589,21.169,41.189,42.666-5.579,18.215-21.333,29.046-41.189,30.195v27.4C954.646,809.975,982.543,782.9,982.871,749.258Zm391.216-118.317c-7.221-58.584-28.061-111.589-68.922-154.911-4.431-4.595-8.862-9.026-13.785-13.456-59.733-54.317-128.163-96.327-203.649-126.193-36.431-14.441-75.815-25.272-114.707-30.359a457.73,457.73,0,0,0-53.5-3.61v21.5c10.01,0,20.184.164,30.359.82a351.642,351.642,0,0,1,89.271,16.738c75.486,24.451,144.409,60.717,205.29,109.127,11.323,9.026,22.318,18.379,32.984,28.225,49.887,45.784,70.4,104.532,76.8,168.7,3.118,31.179,4.1,62.687,6.564,101.25-2.79,31.015-4.923,69.251-10.01,106.994-10.995,81.722-51.856,147.527-118.973,198.562-87.3,66.3-182.152,116.84-296.53,117.988-5.251,0-10.667,0-16.082-.164v20.841c9.682.328,19.364.164,28.882-.164,122.255-5.087,222.849-61.045,313.6-135.547,60.389-49.558,97.147-112.9,108.635-188.716,6.564-42.666,9.19-85.661,12.8-122.091C1380.159,703.474,1378.518,667.044,1374.088,630.941Zm-266.5,362.827c118.974-85.168,157.373-213.331,111.261-341.494-34.789-96.819-99.774-157.865-200.039-194.459-34.133-12.472-67.281-18.707-99.117-19.692v17.723c2.3,0,4.595.164,6.728.164,52.512,2.954,97.64,31.507,140.47,50.871,104.7,47.425,136.7,141.947,146.706,253.208,13.948,153.762-153.6,285.864-293.248,274.212h-.82v23.63C985.825,1059.737,1048.511,1036.106,1107.588,993.768Zm-8.861-199.875c16.41-64.82-12.308-117.5-45.62-168.7-7.877-11.979-23.959-19.856-37.907-26.584-18.379-9.026-38.235-15.261-57.763-22.154a162.753,162.753,0,0,0-37.743-8.533V584.5c14.113,3.118,27.077,5.744,39.384,10.5,81.886,31.836,75.978,15.918,116.019,108.471,21.5,49.723,13.62,95.835-20.512,137.352-31.836,38.728-71.876,64.82-124.388,70.235a55.588,55.588,0,0,1-10.338-.164v17.887C994.03,928.948,1081.332,862.98,1098.726,793.893ZM982.871,749.258c.328-34.133-28.225-63.343-63.343-64.984v27.241c35.281.82,47.589,21.169,41.189,42.666-5.579,18.215-21.333,29.046-41.189,30.195v27.4C954.646,809.975,982.543,782.9,982.871,749.258ZM1426.6,543.148a532.957,532.957,0,0,0-30.359-58.256c-53.989-89.763-128.983-161.147-215.136-221.864-33.641-23.63-76.8-57.107-118.153-60.717-32.328-2.79-64.82-3.61-97.148-5.415-15.59-.328-30.851-.164-46.276.492v20.348c20.02-.656,40.2-.328,60.225,0,10.667,0,21.333.164,31.836,0,83.035-.985,157.7,48.9,216.941,105.845,57.271,55.138,115.855,108.471,154.747,178.706,2.3,4.267,4.759,8.533,6.892,12.8,51.856,99.117,71.712,203.977,62.686,314.909-1.969,23.631-3.61,47.261-7.713,70.563-7.877,45.948-29.21,86.153-62.851,119.63-58.912,58.912-118.153,117.332-177.229,176.08-43.815,43.487-97.148,61.7-159.67,60.389-42.01-.821-84.019-1.969-126.029-2.3v16.9c32.656.164,65.64,2.462,98.132,4.595,88.45,6.072,161.475-19.856,221.044-84.348,39.712-42.994,80.737-85,124.716-123.9,67.938-59.9,103.219-131.773,109.455-220.551C1480.425,740.889,1469.266,638.818,1426.6,543.148ZM948.574,1192.986c122.255-5.087,222.849-61.045,313.6-135.547,60.389-49.558,97.147-112.9,108.634-188.716,6.564-42.666,9.19-85.661,12.8-122.091-3.446-43.158-5.087-79.589-9.518-115.691-7.221-58.584-28.061-111.589-68.922-154.911-4.431-4.595-8.862-9.026-13.785-13.456-59.733-54.317-128.163-96.327-203.649-126.193-36.43-14.441-75.814-25.272-114.706-30.359a457.713,457.713,0,0,0-53.5-3.61v21.5c10.01,0,20.184.164,30.359.821a351.641,351.641,0,0,1,89.271,16.738c75.486,24.451,144.409,60.717,205.29,109.127,11.323,9.026,22.318,18.379,32.984,28.225,49.887,45.784,70.4,104.532,76.8,168.7,3.118,31.179,4.1,62.687,6.564,101.25-2.79,31.015-4.923,69.251-10.01,106.994-10.995,81.722-51.856,147.527-118.973,198.562-87.3,66.3-182.152,116.84-296.53,117.988-5.251,0-10.667,0-16.082-.164v20.841A292.276,292.276,0,0,0,948.574,1192.986Zm159.014-199.218c118.974-85.168,157.373-213.331,111.261-341.494-34.789-96.819-99.774-157.865-200.039-194.459-34.133-12.472-67.281-18.707-99.117-19.692v17.723c2.3,0,4.595.164,6.728.164,52.512,2.954,97.64,31.507,140.47,50.871,104.7,47.425,136.7,141.947,146.706,253.208,13.948,153.762-153.6,285.864-293.248,274.212h-.82v23.63C985.825,1059.737,1048.511,1036.106,1107.588,993.768Zm-8.861-199.875c16.41-64.82-12.308-117.5-45.62-168.7-7.877-11.979-23.959-19.856-37.907-26.584-18.379-9.026-38.235-15.261-57.763-22.154a162.753,162.753,0,0,0-37.743-8.533V584.5c14.113,3.118,27.077,5.744,39.384,10.5,81.886,31.836,75.978,15.918,116.019,108.471,21.5,49.723,13.62,95.835-20.512,137.352-31.836,38.728-71.876,64.82-124.388,70.235a55.588,55.588,0,0,1-10.338-.164v17.887C994.03,928.948,1081.332,862.98,1098.726,793.893ZM982.871,749.258c.328-34.133-28.225-63.343-63.343-64.984v27.241c35.281.82,47.589,21.169,41.189,42.666-5.579,18.215-21.333,29.046-41.189,30.195v27.4C954.646,809.975,982.543,782.9,982.871,749.258Zm391.216-118.317c-7.221-58.584-28.061-111.589-68.922-154.911-4.431-4.595-8.862-9.026-13.785-13.456-59.733-54.317-128.163-96.327-203.649-126.193-36.431-14.441-75.815-25.272-114.707-30.359a457.73,457.73,0,0,0-53.5-3.61v21.5c10.01,0,20.184.164,30.359.82a351.642,351.642,0,0,1,89.271,16.738c75.486,24.451,144.409,60.717,205.29,109.127,11.323,9.026,22.318,18.379,32.984,28.225,49.887,45.784,70.4,104.532,76.8,168.7,3.118,31.179,4.1,62.687,6.564,101.25-2.79,31.015-4.923,69.251-10.01,106.994-10.995,81.722-51.856,147.527-118.973,198.562-87.3,66.3-182.152,116.84-296.53,117.988-5.251,0-10.667,0-16.082-.164v20.841c9.682.328,19.364.164,28.882-.164,122.255-5.087,222.849-61.045,313.6-135.547,60.389-49.558,97.147-112.9,108.635-188.716,6.564-42.666,9.19-85.661,12.8-122.091C1380.159,703.474,1378.518,667.044,1374.088,630.941Zm-266.5,362.827c118.974-85.168,157.373-213.331,111.261-341.494-34.789-96.819-99.774-157.865-200.039-194.459-34.133-12.472-67.281-18.707-99.117-19.692v17.723c2.3,0,4.595.164,6.728.164,52.512,2.954,97.64,31.507,140.47,50.871,104.7,47.425,136.7,141.947,146.706,253.208,13.948,153.762-153.6,285.864-293.248,274.212h-.82v23.63C985.825,1059.737,1048.511,1036.106,1107.588,993.768Zm-8.861-199.875c16.41-64.82-12.308-117.5-45.62-168.7-7.877-11.979-23.959-19.856-37.907-26.584-18.379-9.026-38.235-15.261-57.763-22.154a162.753,162.753,0,0,0-37.743-8.533V584.5c14.113,3.118,27.077,5.744,39.384,10.5,81.886,31.836,75.978,15.918,116.019,108.471,21.5,49.723,13.62,95.835-20.512,137.352-31.836,38.728-71.876,64.82-124.388,70.235a55.588,55.588,0,0,1-10.338-.164v17.887C994.03,928.948,1081.332,862.98,1098.726,793.893ZM982.871,749.258c.328-34.133-28.225-63.343-63.343-64.984v27.241c35.281.82,47.589,21.169,41.189,42.666-5.579,18.215-21.333,29.046-41.189,30.195v27.4C954.646,809.975,982.543,782.9,982.871,749.258Zm576.814-37.743a191.616,191.616,0,0,0-6.072-30.687c-45.62-153.6-110.6-295.71-232.859-411.236-80.573-76.307-169.844-125.373-279.956-144.737-41.189-7.22-81.558-10.5-121.27-8.7V131.09c47.589-2.3,95.178,6.892,142.439,15.425,96,17.395,170.829,66.789,241.392,131.445C1419.379,384.3,1482.066,516.4,1527.686,658.346c2.133,6.892,4.43,13.62,6.4,20.513,10.667,34.625,9.354,72.861,13.292,107.814-7.056,48.41-12.472,94.686-20.841,140.47-10.01,54.81-37.251,101.742-80.409,138.5a1807.961,1807.961,0,0,0-196.757,194.788c-46.933,54.153-113.229,72.532-181.167,88.615a539.066,539.066,0,0,1-148.839,13.948v16.246a573.266,573.266,0,0,0,128.819-9.19c92.061-17.067,176.737-45.62,236.962-120.614,44.635-55.63,96.491-104.532,151.793-150.152,59.24-48.738,98.461-109.127,110.6-183.793,7.549-45.784,11.323-92.225,16.9-138.665C1562.475,755.33,1562.311,733.012,1559.685,711.515ZM1238.7,1191.509c39.712-42.994,80.738-85,124.717-123.9,67.938-59.9,103.22-131.773,109.455-220.551,7.384-106.337-3.775-208.244-46.276-304.079a532.966,532.966,0,0,0-30.359-58.256c-53.989-89.763-128.983-161.147-215.136-221.864-33.641-23.631-76.8-57.107-118.153-60.717-32.328-2.79-64.82-3.61-97.148-5.415-15.59-.328-30.851-.164-46.276.492v20.348c20.02-.656,40.2-.328,60.225,0,10.667,0,21.333.164,31.836,0,83.035-.985,157.7,48.9,216.941,105.845,57.271,55.138,115.855,108.471,154.747,178.706,2.3,4.267,4.759,8.533,6.892,12.8,51.856,99.117,71.712,203.977,62.686,314.909-1.969,23.631-3.61,47.261-7.713,70.563-7.877,45.948-29.21,86.153-62.851,119.63-58.912,58.912-118.153,117.332-177.229,176.08-43.815,43.487-97.148,61.7-159.67,60.389-42.01-.821-84.019-1.969-126.029-2.3v16.9c32.656.164,65.64,2.462,98.132,4.595C1106.275,1281.929,1179.3,1256,1238.7,1191.509Zm-290.13,1.477c122.255-5.087,222.849-61.045,313.6-135.547,60.389-49.558,97.147-112.9,108.634-188.716,6.564-42.666,9.19-85.661,12.8-122.091-3.446-43.158-5.087-79.589-9.518-115.691-7.221-58.584-28.061-111.589-68.922-154.911-4.431-4.595-8.862-9.026-13.785-13.456-59.733-54.317-128.163-96.327-203.649-126.193-36.43-14.441-75.814-25.272-114.706-30.359a457.713,457.713,0,0,0-53.5-3.61v21.5c10.01,0,20.184.164,30.359.821a351.641,351.641,0,0,1,89.271,16.738c75.486,24.451,144.409,60.717,205.29,109.127,11.323,9.026,22.318,18.379,32.984,28.225,49.887,45.784,70.4,104.532,76.8,168.7,3.118,31.179,4.1,62.687,6.564,101.25-2.79,31.015-4.923,69.251-10.01,106.994-10.995,81.722-51.856,147.527-118.973,198.562-87.3,66.3-182.152,116.84-296.53,117.988-5.251,0-10.667,0-16.082-.164v20.841A292.276,292.276,0,0,0,948.574,1192.986Zm159.014-199.218c118.974-85.168,157.373-213.331,111.261-341.494-34.789-96.819-99.774-157.865-200.039-194.459-34.133-12.472-67.281-18.707-99.117-19.692v17.723c2.3,0,4.595.164,6.728.164,52.512,2.954,97.64,31.507,140.47,50.871,104.7,47.425,136.7,141.947,146.706,253.208,13.948,153.762-153.6,285.864-293.248,274.212h-.82v23.63C985.825,1059.737,1048.511,1036.106,1107.588,993.768Zm-8.861-199.875c16.41-64.82-12.308-117.5-45.62-168.7-7.877-11.979-23.959-19.856-37.907-26.584-18.379-9.026-38.235-15.261-57.763-22.154a162.753,162.753,0,0,0-37.743-8.533V584.5c14.113,3.118,27.077,5.744,39.384,10.5,81.886,31.836,75.978,15.918,116.019,108.471,21.5,49.723,13.62,95.835-20.512,137.352-31.836,38.728-71.876,64.82-124.388,70.235a55.588,55.588,0,0,1-10.338-.164v17.887C994.03,928.948,1081.332,862.98,1098.726,793.893ZM982.871,749.258c.328-34.133-28.225-63.343-63.343-64.984v27.241c35.281.82,47.589,21.169,41.189,42.666-5.579,18.215-21.333,29.046-41.189,30.195v27.4C954.646,809.975,982.543,782.9,982.871,749.258ZM1426.6,543.148a532.957,532.957,0,0,0-30.359-58.256c-53.989-89.763-128.983-161.147-215.136-221.864-33.641-23.63-76.8-57.107-118.153-60.717-32.328-2.79-64.82-3.61-97.148-5.415-15.59-.328-30.851-.164-46.276.492v20.348c20.02-.656,40.2-.328,60.225,0,10.667,0,21.333.164,31.836,0,83.035-.985,157.7,48.9,216.941,105.845,57.271,55.138,115.855,108.471,154.747,178.706,2.3,4.267,4.759,8.533,6.892,12.8,51.856,99.117,71.712,203.977,62.686,314.909-1.969,23.631-3.61,47.261-7.713,70.563-7.877,45.948-29.21,86.153-62.851,119.63-58.912,58.912-118.153,117.332-177.229,176.08-43.815,43.487-97.148,61.7-159.67,60.389-42.01-.821-84.019-1.969-126.029-2.3v16.9c32.656.164,65.64,2.462,98.132,4.595,88.45,6.072,161.475-19.856,221.044-84.348,39.712-42.994,80.737-85,124.716-123.9,67.938-59.9,103.219-131.773,109.455-220.551C1480.425,740.889,1469.266,638.818,1426.6,543.148ZM948.574,1192.986c122.255-5.087,222.849-61.045,313.6-135.547,60.389-49.558,97.147-112.9,108.634-188.716,6.564-42.666,9.19-85.661,12.8-122.091-3.446-43.158-5.087-79.589-9.518-115.691-7.221-58.584-28.061-111.589-68.922-154.911-4.431-4.595-8.862-9.026-13.785-13.456-59.733-54.317-128.163-96.327-203.649-126.193-36.43-14.441-75.814-25.272-114.706-30.359a457.713,457.713,0,0,0-53.5-3.61v21.5c10.01,0,20.184.164,30.359.821a351.641,351.641,0,0,1,89.271,16.738c75.486,24.451,144.409,60.717,205.29,109.127,11.323,9.026,22.318,18.379,32.984,28.225,49.887,45.784,70.4,104.532,76.8,168.7,3.118,31.179,4.1,62.687,6.564,101.25-2.79,31.015-4.923,69.251-10.01,106.994-10.995,81.722-51.856,147.527-118.973,198.562-87.3,66.3-182.152,116.84-296.53,117.988-5.251,0-10.667,0-16.082-.164v20.841A292.276,292.276,0,0,0,948.574,1192.986Zm159.014-199.218c118.974-85.168,157.373-213.331,111.261-341.494-34.789-96.819-99.774-157.865-200.039-194.459-34.133-12.472-67.281-18.707-99.117-19.692v17.723c2.3,0,4.595.164,6.728.164,52.512,2.954,97.64,31.507,140.47,50.871,104.7,47.425,136.7,141.947,146.706,253.208,13.948,153.762-153.6,285.864-293.248,274.212h-.82v23.63C985.825,1059.737,1048.511,1036.106,1107.588,993.768Zm-8.861-199.875c16.41-64.82-12.308-117.5-45.62-168.7-7.877-11.979-23.959-19.856-37.907-26.584-18.379-9.026-38.235-15.261-57.763-22.154a162.753,162.753,0,0,0-37.743-8.533V584.5c14.113,3.118,27.077,5.744,39.384,10.5,81.886,31.836,75.978,15.918,116.019,108.471,21.5,49.723,13.62,95.835-20.512,137.352-31.836,38.728-71.876,64.82-124.388,70.235a55.588,55.588,0,0,1-10.338-.164v17.887C994.03,928.948,1081.332,862.98,1098.726,793.893ZM982.871,749.258c.328-34.133-28.225-63.343-63.343-64.984v27.241c35.281.82,47.589,21.169,41.189,42.666-5.579,18.215-21.333,29.046-41.189,30.195v27.4C954.646,809.975,982.543,782.9,982.871,749.258Zm-63.179-64.984v27.241c35.282.82,47.589,21.169,41.189,42.666-5.58,18.215-21.333,29.046-41.189,30.194v27.4c35.117-1.641,63.015-28.882,63.343-62.522C983.2,715.125,954.646,685.915,919.693,684.274Z" transform="translate(-919.2 -18.473)"/>
    </g>
  </g>
</svg>
